<svg xmlns="http://www.w3.org/2000/svg" xmlns:xlink="http://www.w3.org/1999/xlink" width="500" zoomAndPan="magnify" viewBox="0 0 375 374.999991" height="500" preserveAspectRatio="xMidYMid meet" version="1.0"><defs><g><g id="id1"/></g><clipPath id="id2"><path d="M 213 66.660156 L 271.089844 66.660156 L 271.089844 153 L 213 153 Z M 213 66.660156 " clip-rule="nonzero"/></clipPath><clipPath id="id3"><path d="M 155 66.660156 L 225 66.660156 L 225 223 L 155 223 Z M 155 66.660156 " clip-rule="nonzero"/></clipPath><clipPath id="id4"><path d="M 103.839844 66.660156 L 164 66.660156 L 164 222 L 103.839844 222 Z M 103.839844 66.660156 " clip-rule="nonzero"/></clipPath><clipPath id="id5"><path d="M 297 74 L 337 74 L 337 223 L 297 223 Z M 297 74 " clip-rule="nonzero"/></clipPath><clipPath id="id6"><path d="M 243.378906 107.507812 L 320.835938 71.308594 L 374.816406 186.816406 L 297.359375 223.015625 Z M 243.378906 107.507812 " clip-rule="nonzero"/></clipPath><clipPath id="id7"><path d="M 243.378906 107.507812 L 320.835938 71.308594 L 374.816406 186.816406 L 297.359375 223.015625 Z M 243.378906 107.507812 " clip-rule="nonzero"/></clipPath><clipPath id="id8"><path d="M 38 75 L 80 75 L 80 223 L 38 223 Z M 38 75 " clip-rule="nonzero"/></clipPath><clipPath id="id9"><path d="M 52.023438 71.488281 L 130.34375 105.789062 L 79.191406 222.578125 L 0.871094 188.277344 Z M 52.023438 71.488281 " clip-rule="nonzero"/></clipPath><clipPath id="id10"><path d="M 130.632812 105.914062 L 52.316406 71.613281 L 1.164062 188.402344 L 79.480469 222.703125 Z M 130.632812 105.914062 " clip-rule="nonzero"/></clipPath></defs><path fill="rgb(16.079712%, 15.689087%, 15.289307%)" d="M 243.632812 218.6875 C 243.605469 218.644531 243.578125 218.605469 243.554688 218.566406 C 243.472656 218.410156 243.394531 218.265625 243.316406 218.105469 C 243.304688 218.066406 243.277344 218.027344 243.238281 218.027344 C 243.210938 218.027344 243.199219 218.042969 243.171875 218.054688 C 242.855469 218.238281 242.683594 218.515625 242.472656 218.804688 C 242.25 219.105469 242.027344 219.421875 241.828125 219.75 C 241.433594 220.410156 241.105469 221.09375 240.855469 221.816406 C 240.828125 221.90625 240.789062 222 240.765625 222.105469 C 240.355469 223.394531 240.027344 225.050781 240.960938 226.195312 C 241.765625 227.179688 243.199219 227.140625 244.15625 226.40625 C 245.238281 225.589844 245.527344 224.105469 245.40625 222.828125 C 245.289062 221.382812 244.699219 219.988281 243.777344 218.871094 C 243.738281 218.804688 243.683594 218.75 243.632812 218.6875 Z M 244.238281 225.367188 C 243.683594 226.195312 242.394531 226.65625 241.59375 225.878906 C 240.683594 225 241.054688 223.460938 241.367188 222.394531 C 241.722656 221.199219 242.316406 220.078125 243.078125 219.082031 C 243.855469 219.933594 244.382812 220.960938 244.632812 222.09375 C 244.867188 223.171875 244.867188 224.433594 244.238281 225.367188 Z M 244.238281 225.367188 " fill-opacity="1" fill-rule="nonzero"/><g clip-path="url(#id2)"><path fill="rgb(16.079712%, 15.689087%, 15.289307%)" d="M 262.746094 72.777344 C 257.144531 68.265625 249.695312 67.453125 242.761719 66.925781 C 242.699219 66.875 242.605469 66.847656 242.472656 66.898438 C 242.460938 66.898438 242.449219 66.886719 242.421875 66.898438 C 242.410156 66.898438 242.382812 66.898438 242.367188 66.898438 C 242.355469 66.898438 242.328125 66.898438 242.316406 66.898438 C 242.304688 66.898438 242.289062 66.898438 242.25 66.898438 C 242.144531 66.859375 242.054688 66.875 241.972656 66.925781 C 235.042969 67.453125 227.59375 68.265625 221.992188 72.777344 C 216.214844 77.421875 213.769531 84.996094 213.648438 92.175781 C 213.585938 96.449219 214.253906 100.710938 215.203125 104.878906 C 216.03125 108.480469 217.070312 112.03125 218.308594 115.519531 C 220.765625 122.449219 224.003906 129.101562 227.925781 135.335938 C 230.132812 138.847656 232.566406 142.214844 235.210938 145.421875 C 236.421875 146.894531 237.683594 148.34375 238.976562 149.734375 C 239.460938 150.261719 239.960938 150.789062 240.460938 151.300781 C 240.699219 151.539062 240.894531 151.789062 241.144531 152 C 241.433594 152.246094 241.722656 152.484375 242 152.734375 C 242.105469 152.828125 242.222656 152.917969 242.355469 152.90625 C 242.433594 152.890625 242.488281 152.851562 242.554688 152.828125 C 242.910156 152.601562 243.238281 152.351562 243.539062 152.0625 C 243.828125 151.800781 245.800781 149.644531 246.5 148.867188 C 247.894531 147.328125 249.234375 145.738281 250.527344 144.121094 C 252.761719 141.304688 254.839844 138.375 256.761719 135.335938 C 260.683594 129.117188 263.917969 122.460938 266.378906 115.519531 C 267.613281 112.03125 268.652344 108.480469 269.484375 104.878906 C 270.445312 100.722656 271.113281 96.460938 271.035156 92.175781 C 270.96875 84.996094 268.507812 77.421875 262.746094 72.777344 Z M 241.949219 67.820312 C 241.144531 78.695312 240.644531 89.585938 240.460938 100.5 C 240.277344 111.519531 240.410156 122.539062 240.855469 133.5625 C 241.078125 138.898438 241.578125 145.09375 241.949219 150.421875 C 239.789062 146.105469 237.804688 140.726562 236.316406 136.136719 C 234.316406 129.957031 232.832031 123.617188 231.515625 117.253906 C 230.121094 110.507812 228.792969 103.722656 227.726562 96.910156 C 227.1875 93.476562 226.660156 90.003906 226.476562 86.535156 C 226.304688 83.363281 226.554688 80.101562 228.132812 77.289062 C 230.765625 72.59375 236.027344 70.148438 240.816406 68.253906 C 241.199219 68.097656 241.566406 67.964844 241.949219 67.820312 Z M 241.867188 151.75 C 237.5 147.34375 233.542969 142.542969 230.082031 137.386719 C 226.070312 131.402344 222.6875 124.988281 220.070312 118.28125 C 218.765625 114.953125 217.648438 111.558594 216.726562 108.113281 C 215.664062 104.15625 214.792969 100.105469 214.464844 96.015625 C 213.886719 88.691406 215.28125 80.800781 220.386719 75.210938 C 225.34375 69.78125 232.804688 68.398438 239.804688 67.765625 C 239.960938 67.753906 240.121094 67.742188 240.277344 67.726562 C 236.015625 69.398438 231.671875 71.460938 228.792969 75.078125 C 226.9375 77.421875 226.015625 80.222656 225.804688 83.179688 C 225.570312 86.558594 226.070312 89.992188 226.53125 93.34375 C 227.488281 100.445312 228.871094 107.484375 230.265625 114.503906 C 231.566406 121 232.988281 127.5 234.894531 133.851562 C 236.6875 139.832031 241.855469 151.539062 241.867188 151.695312 C 241.882812 151.722656 241.867188 151.734375 241.867188 151.75 Z M 241.121094 119.042969 C 240.949219 108.023438 241.09375 97 241.566406 85.980469 C 241.828125 79.890625 242.183594 73.816406 242.632812 67.742188 C 243.066406 67.898438 243.5 68.070312 243.933594 68.242188 C 248.738281 70.121094 254 72.566406 256.617188 77.273438 C 258.195312 80.089844 258.445312 83.363281 258.273438 86.519531 C 258.089844 89.992188 257.5625 93.464844 257.023438 96.894531 C 255.957031 103.707031 254.628906 110.480469 253.234375 117.242188 C 251.921875 123.605469 250.433594 129.945312 248.433594 136.125 C 246.828125 141.082031 244.894531 145.9375 242.488281 150.566406 C 241.738281 140.070312 241.277344 129.5625 241.121094 119.042969 Z M 268.023438 108.113281 C 267.089844 111.558594 265.96875 114.953125 264.679688 118.28125 C 262.0625 124.988281 258.683594 131.402344 254.667969 137.386719 C 254.484375 137.664062 254.289062 137.953125 254.105469 138.230469 C 252.972656 139.875 251.789062 141.476562 250.566406 143.042969 C 249.339844 144.609375 248.066406 146.144531 246.738281 147.632812 C 246.078125 148.382812 245.40625 149.117188 244.722656 149.839844 C 244.382812 150.210938 242.722656 151.90625 242.660156 151.878906 C 242.789062 151.5 242.949219 151.167969 243.132812 150.816406 C 244.066406 149.011719 244.933594 147.171875 245.738281 145.304688 C 246.539062 143.4375 247.277344 141.542969 247.960938 139.625 C 248.644531 137.714844 249.261719 135.796875 249.855469 133.863281 C 251.761719 127.511719 253.183594 121.027344 254.484375 114.519531 C 255.894531 107.496094 257.273438 100.445312 258.222656 93.359375 C 258.667969 90.003906 259.183594 86.585938 258.945312 83.191406 C 258.734375 80.234375 257.8125 77.433594 255.957031 75.09375 C 253.089844 71.476562 248.75 69.410156 244.472656 67.742188 C 244.632812 67.753906 244.789062 67.765625 244.949219 67.78125 C 251.945312 68.410156 259.40625 69.792969 264.367188 75.222656 C 269.46875 80.8125 270.863281 88.691406 270.285156 96.027344 C 269.957031 100.117188 269.089844 104.15625 268.023438 108.113281 Z M 268.023438 108.113281 " fill-opacity="1" fill-rule="nonzero"/></g><path fill="rgb(16.079712%, 15.689087%, 15.289307%)" d="M 243.144531 219.121094 C 242.144531 216.792969 241.449219 214.347656 240.988281 211.875 C 242.222656 212.519531 243.511719 213.042969 244.855469 213.453125 C 244.554688 215.425781 244.054688 217.34375 243.144531 219.121094 Z M 244.933594 212.769531 C 243.511719 212.335938 242.160156 211.769531 240.855469 211.046875 C 240.84375 211.046875 240.84375 211.046875 240.828125 211.03125 C 240.605469 209.691406 240.421875 208.347656 240.304688 206.996094 C 240.304688 206.996094 240.304688 206.980469 240.304688 206.980469 C 241.855469 208.035156 243.433594 209.03125 245.066406 209.953125 C 245.105469 209.980469 245.144531 209.980469 245.171875 209.992188 C 245.117188 210.925781 245.039062 211.859375 244.933594 212.769531 Z M 245.328125 205.796875 C 245.289062 206.941406 245.261719 208.113281 245.210938 209.28125 C 243.511719 208.308594 241.855469 207.269531 240.25 206.167969 C 240.25 206.167969 240.238281 206.167969 240.238281 206.167969 C 240.105469 204.574219 240.027344 202.996094 239.960938 201.40625 C 241.632812 202.523438 243.367188 203.550781 245.171875 204.457031 C 245.238281 204.496094 245.300781 204.496094 245.367188 204.484375 C 245.355469 204.902344 245.34375 205.351562 245.328125 205.796875 Z M 245.382812 203.800781 C 243.539062 202.867188 241.765625 201.8125 240.066406 200.65625 C 240.015625 200.628906 239.976562 200.605469 239.933594 200.605469 C 239.882812 199.289062 239.855469 197.972656 239.828125 196.671875 C 241.765625 197.449219 243.644531 198.382812 245.433594 199.460938 C 245.460938 199.472656 245.5 199.484375 245.527344 199.5 C 245.472656 200.917969 245.433594 202.351562 245.382812 203.800781 Z M 245.527344 198.75 C 243.699219 197.65625 241.777344 196.722656 239.789062 195.933594 C 239.777344 195.132812 239.75 194.332031 239.738281 193.515625 C 239.726562 192.714844 239.699219 191.925781 239.671875 191.121094 C 241.660156 191.949219 243.644531 192.792969 245.632812 193.621094 C 245.605469 195.328125 245.578125 197.039062 245.527344 198.75 Z M 245.65625 192.910156 C 243.660156 192.070312 241.660156 191.226562 239.660156 190.398438 C 239.621094 188.6875 239.578125 186.980469 239.527344 185.269531 C 241.515625 186.320312 243.59375 187.191406 245.738281 187.859375 C 245.722656 189.542969 245.699219 191.226562 245.65625 192.910156 Z M 245.761719 187.148438 C 243.605469 186.453125 241.515625 185.570312 239.515625 184.492188 C 239.476562 182.757812 239.421875 181.035156 239.382812 179.300781 L 245.722656 182.457031 C 245.761719 182.46875 245.789062 182.480469 245.828125 182.480469 C 245.816406 184.046875 245.789062 185.597656 245.761719 187.148438 Z M 245.882812 176.746094 C 245.882812 178.417969 245.855469 180.101562 245.84375 181.773438 C 243.683594 180.691406 241.527344 179.628906 239.371094 178.550781 C 239.328125 176.894531 239.289062 175.234375 239.25 173.578125 C 241.382812 174.539062 243.539062 175.433594 245.738281 176.25 C 245.789062 176.273438 245.84375 176.273438 245.882812 176.261719 C 245.882812 176.417969 245.882812 176.589844 245.882812 176.746094 Z M 245.882812 175.578125 C 243.632812 174.75 241.421875 173.828125 239.238281 172.84375 C 239.238281 172.84375 239.226562 172.84375 239.226562 172.84375 C 239.183594 171.34375 239.144531 169.855469 239.121094 168.359375 C 241.367188 169.160156 243.632812 169.949219 245.882812 170.75 C 245.882812 172.355469 245.882812 173.972656 245.882812 175.578125 Z M 245.882812 170.027344 C 243.617188 169.226562 241.367188 168.4375 239.105469 167.632812 C 239.078125 166.609375 239.054688 165.570312 239.027344 164.542969 C 239.015625 163.964844 239 163.386719 238.988281 162.808594 C 241.222656 163.609375 243.511719 164.242188 245.855469 164.675781 C 245.855469 166.464844 245.867188 168.253906 245.882812 170.027344 Z M 245.828125 162.308594 C 245.828125 162.875 245.828125 163.4375 245.84375 164.003906 C 243.5 163.558594 241.199219 162.925781 238.960938 162.109375 C 238.949219 161.558594 238.933594 161.007812 238.921875 160.453125 C 238.894531 159.285156 238.855469 158.101562 239.015625 156.941406 C 241.238281 157.390625 243.421875 158.019531 245.550781 158.824219 C 245.617188 158.851562 245.683594 158.851562 245.738281 158.835938 C 245.816406 160.007812 245.816406 161.191406 245.828125 162.308594 Z M 245.671875 158.140625 C 243.539062 157.335938 241.355469 156.707031 239.132812 156.257812 C 239.488281 154.679688 240.394531 153.050781 241.894531 152.445312 C 241.921875 152.445312 241.949219 152.457031 241.988281 152.457031 C 242.410156 152.496094 243.011719 152.472656 243.382812 152.207031 C 243.394531 152.207031 243.394531 152.195312 243.410156 152.195312 C 244.90625 153.8125 245.460938 155.957031 245.671875 158.140625 Z M 245.671875 158.140625 " fill-opacity="1" fill-rule="nonzero"/><path fill="rgb(16.079712%, 15.689087%, 15.289307%)" d="M 198.21875 203.757812 C 198.441406 203.863281 198.679688 203.945312 198.914062 203.996094 C 200.402344 204.324219 202.085938 203.695312 203.007812 202.496094 C 203.886719 201.351562 203.796875 199.855469 202.808594 198.789062 C 201.875 197.789062 200.324219 197.472656 199.058594 197.972656 C 197.808594 198.460938 196.953125 199.683594 196.851562 201.011719 C 196.785156 202.050781 197.230469 203.300781 198.21875 203.757812 Z M 198.996094 198.75 C 199.953125 198.222656 201.257812 198.339844 202.097656 199.039062 C 203.019531 199.800781 203.242188 201.039062 202.546875 202.023438 C 201.863281 202.984375 200.574219 203.535156 199.414062 203.46875 C 199.085938 203.457031 198.746094 203.390625 198.496094 203.195312 C 197.914062 202.746094 197.585938 202.167969 197.535156 201.417969 C 197.453125 200.355469 198.046875 199.273438 198.996094 198.75 Z M 198.996094 198.75 " fill-opacity="1" fill-rule="nonzero"/><path fill="rgb(16.079712%, 15.689087%, 15.289307%)" d="M 191.035156 189.765625 C 190.167969 190.015625 189.484375 190.742188 189.390625 191.648438 C 189.285156 192.648438 189.929688 193.632812 190.863281 193.988281 C 190.890625 194 190.929688 194 190.96875 194 C 191.007812 194.027344 191.046875 194.042969 191.101562 194.054688 C 192.007812 194.238281 192.929688 193.832031 193.457031 193.082031 C 193.96875 192.34375 193.890625 191.332031 193.375 190.609375 C 192.824219 189.871094 191.929688 189.515625 191.035156 189.765625 Z M 193.007812 192.488281 C 192.71875 193.132812 191.96875 193.554688 191.273438 193.410156 C 191.230469 193.398438 191.191406 193.410156 191.152344 193.410156 C 191.113281 193.382812 191.074219 193.355469 191.035156 193.34375 C 190.46875 193.132812 190.074219 192.542969 190.046875 191.949219 C 190.007812 191.304688 190.402344 190.753906 190.996094 190.503906 C 191.574219 190.253906 192.21875 190.371094 192.667969 190.832031 C 193.074219 191.253906 193.269531 191.925781 193.007812 192.488281 Z M 193.007812 192.488281 " fill-opacity="1" fill-rule="nonzero"/><path fill="rgb(16.079712%, 15.689087%, 15.289307%)" d="M 189.324219 174.921875 C 189.351562 174.933594 189.390625 174.933594 189.429688 174.933594 C 189.46875 174.960938 189.507812 174.972656 189.5625 174.984375 C 190.46875 175.167969 191.390625 174.761719 191.917969 174.011719 C 192.429688 173.277344 192.351562 172.261719 191.835938 171.539062 C 191.296875 170.804688 190.402344 170.449219 189.507812 170.699219 C 188.640625 170.949219 187.957031 171.671875 187.863281 172.578125 C 187.746094 173.589844 188.390625 174.578125 189.324219 174.921875 Z M 189.457031 171.421875 C 190.035156 171.171875 190.679688 171.289062 191.128906 171.75 C 191.535156 172.183594 191.730469 172.855469 191.46875 173.421875 C 191.179688 174.066406 190.429688 174.484375 189.734375 174.339844 C 189.691406 174.328125 189.652344 174.339844 189.613281 174.339844 C 189.574219 174.316406 189.535156 174.289062 189.496094 174.277344 C 188.929688 174.066406 188.535156 173.472656 188.507812 172.882812 C 188.484375 172.238281 188.878906 171.683594 189.457031 171.421875 Z M 189.457031 171.421875 " fill-opacity="1" fill-rule="nonzero"/><path fill="rgb(16.079712%, 15.689087%, 15.289307%)" d="M 199.007812 180.546875 C 199.035156 180.5625 199.074219 180.5625 199.113281 180.5625 C 199.152344 180.589844 199.191406 180.601562 199.246094 180.613281 C 200.152344 180.796875 201.074219 180.390625 201.597656 179.640625 C 202.113281 178.90625 202.035156 177.890625 201.519531 177.167969 C 200.980469 176.433594 200.085938 176.078125 199.191406 176.328125 C 198.324219 176.578125 197.640625 177.300781 197.546875 178.207031 C 197.429688 179.21875 198.074219 180.207031 199.007812 180.546875 Z M 199.140625 177.0625 C 199.71875 176.8125 200.363281 176.933594 200.808594 177.390625 C 201.21875 177.828125 201.414062 178.496094 201.152344 179.0625 C 200.863281 179.707031 200.113281 180.128906 199.414062 179.984375 C 199.375 179.96875 199.335938 179.984375 199.296875 179.984375 C 199.257812 179.957031 199.21875 179.929688 199.179688 179.917969 C 198.613281 179.707031 198.21875 179.113281 198.191406 178.523438 C 198.164062 177.867188 198.558594 177.3125 199.140625 177.0625 Z M 199.140625 177.0625 " fill-opacity="1" fill-rule="nonzero"/><path fill="rgb(16.079712%, 15.689087%, 15.289307%)" d="M 170.710938 184.296875 C 170.734375 184.308594 170.773438 184.308594 170.816406 184.308594 C 170.855469 184.335938 170.894531 184.347656 170.945312 184.363281 C 171.855469 184.546875 172.773438 184.140625 173.300781 183.390625 C 173.8125 182.652344 173.734375 181.640625 173.222656 180.917969 C 172.683594 180.179688 171.789062 179.824219 170.894531 180.074219 C 170.023438 180.324219 169.339844 181.046875 169.25 181.957031 C 169.117188 182.96875 169.773438 183.953125 170.710938 184.296875 Z M 170.839844 180.796875 C 171.417969 180.546875 172.0625 180.667969 172.511719 181.128906 C 172.917969 181.5625 173.117188 182.230469 172.855469 182.796875 C 172.5625 183.441406 171.8125 183.863281 171.117188 183.71875 C 171.078125 183.703125 171.039062 183.71875 171 183.71875 C 170.960938 183.691406 170.917969 183.664062 170.878906 183.652344 C 170.316406 183.441406 169.917969 182.851562 169.894531 182.257812 C 169.855469 181.613281 170.25 181.0625 170.839844 180.796875 Z M 170.839844 180.796875 " fill-opacity="1" fill-rule="nonzero"/><path fill="rgb(16.079712%, 15.689087%, 15.289307%)" d="M 183.234375 200.511719 C 183.167969 200.5 183.089844 200.523438 183.023438 200.5625 C 182.929688 200.605469 182.878906 200.65625 182.851562 200.734375 C 182.15625 201.523438 181.867188 202.667969 182.21875 203.667969 C 182.589844 204.71875 183.5625 205.46875 184.667969 205.585938 C 185.734375 205.691406 186.824219 205.074219 187.324219 204.128906 C 187.851562 203.140625 187.652344 201.945312 186.902344 201.117188 C 185.945312 200.0625 184.496094 200.234375 183.234375 200.511719 Z M 186.152344 201.351562 C 186.796875 201.851562 187.101562 202.746094 186.851562 203.511719 C 186.601562 204.273438 185.839844 204.878906 185.035156 204.929688 C 184.179688 204.984375 183.363281 204.484375 182.96875 203.734375 C 182.535156 202.90625 182.761719 201.851562 183.378906 201.167969 C 184.273438 200.957031 185.363281 200.734375 186.152344 201.351562 Z M 186.152344 201.351562 " fill-opacity="1" fill-rule="nonzero"/><path fill="rgb(16.079712%, 15.689087%, 15.289307%)" d="M 201.152344 188.003906 C 201.179688 189.253906 202.125 190.28125 203.296875 190.582031 C 204.453125 190.886719 206.046875 190.621094 206.664062 189.492188 C 207.257812 188.425781 206.925781 186.980469 206.085938 186.152344 C 205.652344 185.730469 205.070312 185.46875 204.46875 185.414062 C 204.175781 185.386719 203.863281 185.414062 203.585938 185.492188 C 203.257812 185.585938 202.96875 185.757812 202.652344 185.847656 C 202.363281 185.925781 202.085938 186.113281 201.863281 186.320312 C 201.414062 186.753906 201.136719 187.375 201.152344 188.003906 Z M 202.636719 186.625 C 202.875 186.464844 203.136719 186.359375 203.414062 186.28125 C 203.625 186.230469 203.808594 186.125 204.03125 186.097656 C 204.480469 186.03125 204.953125 186.136719 205.335938 186.402344 C 206.085938 186.898438 206.453125 187.925781 206.230469 188.792969 C 205.96875 189.78125 204.863281 190.097656 203.953125 190.03125 C 203.019531 189.953125 202.136719 189.371094 201.886719 188.4375 C 201.679688 187.636719 202.046875 187.003906 202.636719 186.625 Z M 202.636719 186.625 " fill-opacity="1" fill-rule="nonzero"/><path fill="rgb(16.079712%, 15.689087%, 15.289307%)" d="M 175.90625 194.421875 C 177.0625 194.726562 178.65625 194.460938 179.273438 193.332031 C 179.867188 192.265625 179.535156 190.820312 178.695312 189.992188 C 178.261719 189.570312 177.683594 189.308594 177.078125 189.253906 C 176.789062 189.226562 176.472656 189.253906 176.195312 189.332031 C 175.867188 189.425781 175.578125 189.597656 175.261719 189.6875 C 174.972656 189.765625 174.695312 189.953125 174.472656 190.160156 C 174.011719 190.597656 173.734375 191.199219 173.75 191.832031 C 173.789062 193.09375 174.734375 194.121094 175.90625 194.421875 Z M 175.246094 190.464844 C 175.484375 190.304688 175.746094 190.203125 176.023438 190.121094 C 176.234375 190.070312 176.417969 189.964844 176.640625 189.9375 C 177.089844 189.871094 177.5625 189.976562 177.945312 190.242188 C 178.695312 190.742188 179.0625 191.765625 178.839844 192.632812 C 178.578125 193.621094 177.472656 193.9375 176.5625 193.871094 C 175.628906 193.792969 174.746094 193.210938 174.5 192.277344 C 174.289062 191.476562 174.65625 190.84375 175.246094 190.464844 Z M 175.246094 190.464844 " fill-opacity="1" fill-rule="nonzero"/><path fill="rgb(16.079712%, 15.689087%, 15.289307%)" d="M 174.445312 198.117188 C 173.945312 197.882812 173.367188 197.828125 172.828125 197.972656 C 172.472656 198.066406 172.117188 198.25 171.839844 198.5 C 171.523438 198.761719 171.394531 199.066406 171.3125 199.460938 C 171.167969 200.234375 171.300781 201.0625 171.789062 201.707031 C 172.378906 202.484375 173.394531 202.917969 174.351562 202.65625 C 175.289062 202.40625 175.996094 201.5625 176.023438 200.589844 C 176.039062 199.550781 175.367188 198.539062 174.445312 198.117188 Z M 174.394531 201.917969 C 173.734375 202.207031 172.972656 201.972656 172.472656 201.472656 C 171.917969 200.90625 171.789062 200.039062 172.023438 199.289062 C 172.0625 199.261719 172.105469 199.234375 172.128906 199.183594 C 172.523438 198.605469 173.300781 198.421875 173.945312 198.632812 C 174.644531 198.867188 175.183594 199.523438 175.3125 200.25 C 175.445312 200.972656 175.050781 201.628906 174.394531 201.917969 Z M 174.394531 201.917969 " fill-opacity="1" fill-rule="nonzero"/><path fill="rgb(16.079712%, 15.689087%, 15.289307%)" d="M 181.65625 186.558594 C 182.613281 186.925781 183.785156 186.636719 184.507812 185.914062 C 184.90625 185.519531 185.15625 184.992188 185.207031 184.441406 C 185.246094 184.074219 185.195312 183.679688 185.0625 183.335938 C 184.917969 182.957031 184.679688 182.730469 184.339844 182.519531 C 183.65625 182.113281 182.824219 181.96875 182.0625 182.207031 C 181.140625 182.496094 180.378906 183.308594 180.300781 184.296875 C 180.195312 185.257812 180.734375 186.214844 181.65625 186.558594 Z M 182.023438 182.929688 C 182.746094 182.601562 183.601562 182.769531 184.21875 183.257812 C 184.234375 183.296875 184.246094 183.351562 184.285156 183.390625 C 184.695312 183.953125 184.601562 184.742188 184.179688 185.28125 C 183.71875 185.863281 182.917969 186.152344 182.195312 186.019531 C 181.484375 185.886719 180.996094 185.296875 180.945312 184.585938 C 180.90625 183.863281 181.378906 183.230469 182.023438 182.929688 Z M 182.023438 182.929688 " fill-opacity="1" fill-rule="nonzero"/><path fill="rgb(16.079712%, 15.689087%, 15.289307%)" d="M 179.035156 177.367188 C 179.972656 177.117188 180.679688 176.273438 180.707031 175.300781 C 180.722656 174.277344 180.050781 173.261719 179.128906 172.84375 C 178.628906 172.605469 178.050781 172.554688 177.511719 172.699219 C 177.15625 172.789062 176.800781 172.972656 176.523438 173.222656 C 176.207031 173.488281 176.078125 173.789062 175.996094 174.183594 C 175.851562 174.960938 175.984375 175.789062 176.472656 176.433594 C 177.0625 177.195312 178.078125 177.628906 179.035156 177.367188 Z M 176.722656 174.027344 C 176.761719 174 176.800781 173.972656 176.828125 173.921875 C 177.222656 173.34375 177.996094 173.15625 178.640625 173.367188 C 179.339844 173.605469 179.878906 174.261719 180.011719 174.984375 C 180.128906 175.695312 179.746094 176.367188 179.089844 176.644531 C 178.433594 176.933594 177.667969 176.695312 177.167969 176.195312 C 176.601562 175.628906 176.484375 174.761719 176.722656 174.027344 Z M 176.722656 174.027344 " fill-opacity="1" fill-rule="nonzero"/><g clip-path="url(#id3)"><path fill="rgb(16.079712%, 15.689087%, 15.289307%)" d="M 157.121094 198.027344 C 158.921875 204.546875 162.59375 210.558594 167.789062 214.910156 C 173 219.277344 179.496094 221.960938 186.21875 222.75 C 192.929688 223.539062 199.824219 222.382812 205.796875 219.210938 C 211.597656 216.132812 216.464844 211.320312 219.742188 205.640625 C 223.1875 199.65625 224.804688 192.714844 224.136719 185.820312 C 223.765625 182.035156 222.726562 178.3125 221.003906 174.90625 C 219.320312 171.605469 216.964844 168.6875 214.1875 166.253906 C 208.257812 161.046875 200.742188 158.113281 193.113281 156.402344 C 192.601562 156.285156 192.074219 156.179688 191.546875 156.0625 C 191.601562 150.222656 191.585938 140.019531 191.535156 134.402344 C 191.46875 128.640625 191.363281 122.894531 191.179688 117.136719 C 191.007812 111.414062 190.785156 105.679688 190.496094 99.960938 C 190.207031 94.214844 189.878906 88.464844 189.46875 82.71875 C 189.273438 79.839844 189.0625 76.945312 188.824219 74.066406 C 188.71875 72.738281 188.679688 71.382812 188.457031 70.082031 C 188.273438 69.03125 187.863281 67.992188 186.957031 67.347656 C 186.195312 66.808594 185.167969 66.609375 184.339844 67.109375 C 183.511719 67.609375 183.195312 68.597656 183.0625 69.503906 C 182.878906 70.804688 182.839844 72.148438 182.734375 73.460938 C 182.628906 74.882812 182.523438 76.300781 182.429688 77.722656 C 182.050781 83.429688 181.746094 89.152344 181.523438 94.859375 C 181.300781 100.550781 181.15625 106.246094 181.101562 111.925781 C 181.035156 117.648438 181.0625 123.367188 181.15625 129.089844 C 181.261719 134.808594 181.429688 140.53125 181.695312 146.25 C 181.761719 147.554688 181.8125 154.074219 181.890625 156.023438 C 180.0625 156.417969 178.234375 156.96875 176.523438 157.652344 C 173.734375 158.730469 171.078125 160.191406 168.722656 162.046875 C 163.550781 166.136719 159.511719 171.683594 157.433594 177.972656 C 155.34375 184.46875 155.316406 191.515625 157.121094 198.027344 Z M 184.285156 75.144531 C 184.324219 74.632812 184.40625 74.105469 184.550781 73.605469 C 184.667969 73.171875 184.851562 72.710938 185.257812 72.460938 C 186.074219 71.976562 186.707031 72.804688 186.863281 73.527344 C 187.074219 74.5 187.035156 75.539062 186.796875 76.5 C 186.613281 77.25 186.21875 78.667969 185.179688 78.394531 C 185.140625 78.378906 185.113281 78.367188 185.089844 78.355469 C 185.035156 78.339844 184.996094 78.3125 184.957031 78.273438 C 184.589844 77.90625 184.445312 77.40625 184.363281 76.90625 C 184.273438 76.328125 184.246094 75.738281 184.285156 75.144531 Z M 165.644531 165.847656 C 167.050781 164.375 168.644531 163.070312 170.328125 161.941406 C 174.484375 159.164062 179.589844 156.980469 184.574219 156.484375 C 186.746094 156.257812 188.824219 156.378906 190.902344 156.707031 C 190.980469 156.917969 191.273438 156.929688 191.441406 156.785156 C 192.246094 156.929688 193.0625 157.085938 193.863281 157.285156 C 199.296875 158.574219 204.636719 160.480469 209.359375 163.492188 C 212.375 165.410156 215.125 167.753906 217.371094 170.539062 C 219.726562 173.460938 221.425781 176.851562 222.449219 180.457031 C 224.359375 187.230469 223.871094 194.527344 221.253906 201.039062 C 218.847656 207.007812 214.714844 212.308594 209.503906 216.09375 C 204.175781 219.988281 197.796875 222.144531 191.191406 222.316406 C 184.550781 222.472656 177.851562 220.710938 172.183594 217.238281 C 166.484375 213.753906 162.050781 208.558594 159.394531 202.457031 C 156.75 196.382812 155.84375 189.503906 156.933594 182.96875 C 158.015625 176.511719 161.117188 170.566406 165.644531 165.847656 Z M 165.644531 165.847656 " fill-opacity="1" fill-rule="nonzero"/></g><path fill="rgb(16.079712%, 15.689087%, 15.289307%)" d="M 198.21875 203.757812 C 198.441406 203.863281 198.679688 203.945312 198.914062 203.996094 C 200.402344 204.324219 202.085938 203.695312 203.007812 202.496094 C 203.886719 201.351562 203.796875 199.855469 202.808594 198.789062 C 201.875 197.789062 200.324219 197.472656 199.058594 197.972656 C 197.808594 198.460938 196.953125 199.683594 196.851562 201.011719 C 196.785156 202.050781 197.230469 203.300781 198.21875 203.757812 Z M 198.996094 198.75 C 199.953125 198.222656 201.257812 198.339844 202.097656 199.039062 C 203.019531 199.800781 203.242188 201.039062 202.546875 202.023438 C 201.863281 202.984375 200.574219 203.535156 199.414062 203.46875 C 199.085938 203.457031 198.746094 203.390625 198.496094 203.195312 C 197.914062 202.746094 197.585938 202.167969 197.535156 201.417969 C 197.453125 200.355469 198.046875 199.273438 198.996094 198.75 Z M 198.996094 198.75 " fill-opacity="1" fill-rule="nonzero"/><path fill="rgb(16.079712%, 15.689087%, 15.289307%)" d="M 191.035156 189.765625 C 190.167969 190.015625 189.484375 190.742188 189.390625 191.648438 C 189.285156 192.648438 189.929688 193.632812 190.863281 193.988281 C 190.890625 194 190.929688 194 190.96875 194 C 191.007812 194.027344 191.046875 194.042969 191.101562 194.054688 C 192.007812 194.238281 192.929688 193.832031 193.457031 193.082031 C 193.96875 192.34375 193.890625 191.332031 193.375 190.609375 C 192.824219 189.871094 191.929688 189.515625 191.035156 189.765625 Z M 193.007812 192.488281 C 192.71875 193.132812 191.96875 193.554688 191.273438 193.410156 C 191.230469 193.398438 191.191406 193.410156 191.152344 193.410156 C 191.113281 193.382812 191.074219 193.355469 191.035156 193.34375 C 190.46875 193.132812 190.074219 192.542969 190.046875 191.949219 C 190.007812 191.304688 190.402344 190.753906 190.996094 190.503906 C 191.574219 190.253906 192.21875 190.371094 192.667969 190.832031 C 193.074219 191.253906 193.269531 191.925781 193.007812 192.488281 Z M 193.007812 192.488281 " fill-opacity="1" fill-rule="nonzero"/><path fill="rgb(16.079712%, 15.689087%, 15.289307%)" d="M 189.324219 174.921875 C 189.351562 174.933594 189.390625 174.933594 189.429688 174.933594 C 189.46875 174.960938 189.507812 174.972656 189.5625 174.984375 C 190.46875 175.167969 191.390625 174.761719 191.917969 174.011719 C 192.429688 173.277344 192.351562 172.261719 191.835938 171.539062 C 191.296875 170.804688 190.402344 170.449219 189.507812 170.699219 C 188.640625 170.949219 187.957031 171.671875 187.863281 172.578125 C 187.746094 173.589844 188.390625 174.578125 189.324219 174.921875 Z M 189.457031 171.421875 C 190.035156 171.171875 190.679688 171.289062 191.128906 171.75 C 191.535156 172.183594 191.730469 172.855469 191.46875 173.421875 C 191.179688 174.066406 190.429688 174.484375 189.734375 174.339844 C 189.691406 174.328125 189.652344 174.339844 189.613281 174.339844 C 189.574219 174.316406 189.535156 174.289062 189.496094 174.277344 C 188.929688 174.066406 188.535156 173.472656 188.507812 172.882812 C 188.484375 172.238281 188.878906 171.683594 189.457031 171.421875 Z M 189.457031 171.421875 " fill-opacity="1" fill-rule="nonzero"/><path fill="rgb(16.079712%, 15.689087%, 15.289307%)" d="M 199.007812 180.546875 C 199.035156 180.5625 199.074219 180.5625 199.113281 180.5625 C 199.152344 180.589844 199.191406 180.601562 199.246094 180.613281 C 200.152344 180.796875 201.074219 180.390625 201.597656 179.640625 C 202.113281 178.90625 202.035156 177.890625 201.519531 177.167969 C 200.980469 176.433594 200.085938 176.078125 199.191406 176.328125 C 198.324219 176.578125 197.640625 177.300781 197.546875 178.207031 C 197.429688 179.21875 198.074219 180.207031 199.007812 180.546875 Z M 199.140625 177.0625 C 199.71875 176.8125 200.363281 176.933594 200.808594 177.390625 C 201.21875 177.828125 201.414062 178.496094 201.152344 179.0625 C 200.863281 179.707031 200.113281 180.128906 199.414062 179.984375 C 199.375 179.96875 199.335938 179.984375 199.296875 179.984375 C 199.257812 179.957031 199.21875 179.929688 199.179688 179.917969 C 198.613281 179.707031 198.21875 179.113281 198.191406 178.523438 C 198.164062 177.867188 198.558594 177.3125 199.140625 177.0625 Z M 199.140625 177.0625 " fill-opacity="1" fill-rule="nonzero"/><path fill="rgb(16.079712%, 15.689087%, 15.289307%)" d="M 170.710938 184.296875 C 170.734375 184.308594 170.773438 184.308594 170.816406 184.308594 C 170.855469 184.335938 170.894531 184.347656 170.945312 184.363281 C 171.855469 184.546875 172.773438 184.140625 173.300781 183.390625 C 173.8125 182.652344 173.734375 181.640625 173.222656 180.917969 C 172.683594 180.179688 171.789062 179.824219 170.894531 180.074219 C 170.023438 180.324219 169.339844 181.046875 169.25 181.957031 C 169.117188 182.96875 169.773438 183.953125 170.710938 184.296875 Z M 170.839844 180.796875 C 171.417969 180.546875 172.0625 180.667969 172.511719 181.128906 C 172.917969 181.5625 173.117188 182.230469 172.855469 182.796875 C 172.5625 183.441406 171.8125 183.863281 171.117188 183.71875 C 171.078125 183.703125 171.039062 183.71875 171 183.71875 C 170.960938 183.691406 170.917969 183.664062 170.878906 183.652344 C 170.316406 183.441406 169.917969 182.851562 169.894531 182.257812 C 169.855469 181.613281 170.25 181.0625 170.839844 180.796875 Z M 170.839844 180.796875 " fill-opacity="1" fill-rule="nonzero"/><path fill="rgb(16.079712%, 15.689087%, 15.289307%)" d="M 183.234375 200.511719 C 183.167969 200.5 183.089844 200.523438 183.023438 200.5625 C 182.929688 200.605469 182.878906 200.65625 182.851562 200.734375 C 182.15625 201.523438 181.867188 202.667969 182.21875 203.667969 C 182.589844 204.71875 183.5625 205.46875 184.667969 205.585938 C 185.734375 205.691406 186.824219 205.074219 187.324219 204.128906 C 187.851562 203.140625 187.652344 201.945312 186.902344 201.117188 C 185.945312 200.0625 184.496094 200.234375 183.234375 200.511719 Z M 186.152344 201.351562 C 186.796875 201.851562 187.101562 202.746094 186.851562 203.511719 C 186.601562 204.273438 185.839844 204.878906 185.035156 204.929688 C 184.179688 204.984375 183.363281 204.484375 182.96875 203.734375 C 182.535156 202.90625 182.761719 201.851562 183.378906 201.167969 C 184.273438 200.957031 185.363281 200.734375 186.152344 201.351562 Z M 186.152344 201.351562 " fill-opacity="1" fill-rule="nonzero"/><path fill="rgb(16.079712%, 15.689087%, 15.289307%)" d="M 201.152344 188.003906 C 201.179688 189.253906 202.125 190.28125 203.296875 190.582031 C 204.453125 190.886719 206.046875 190.621094 206.664062 189.492188 C 207.257812 188.425781 206.925781 186.980469 206.085938 186.152344 C 205.652344 185.730469 205.070312 185.46875 204.46875 185.414062 C 204.175781 185.386719 203.863281 185.414062 203.585938 185.492188 C 203.257812 185.585938 202.96875 185.757812 202.652344 185.847656 C 202.363281 185.925781 202.085938 186.113281 201.863281 186.320312 C 201.414062 186.753906 201.136719 187.375 201.152344 188.003906 Z M 202.636719 186.625 C 202.875 186.464844 203.136719 186.359375 203.414062 186.28125 C 203.625 186.230469 203.808594 186.125 204.03125 186.097656 C 204.480469 186.03125 204.953125 186.136719 205.335938 186.402344 C 206.085938 186.898438 206.453125 187.925781 206.230469 188.792969 C 205.96875 189.78125 204.863281 190.097656 203.953125 190.03125 C 203.019531 189.953125 202.136719 189.371094 201.886719 188.4375 C 201.679688 187.636719 202.046875 187.003906 202.636719 186.625 Z M 202.636719 186.625 " fill-opacity="1" fill-rule="nonzero"/><path fill="rgb(16.079712%, 15.689087%, 15.289307%)" d="M 175.90625 194.421875 C 177.0625 194.726562 178.65625 194.460938 179.273438 193.332031 C 179.867188 192.265625 179.535156 190.820312 178.695312 189.992188 C 178.261719 189.570312 177.683594 189.308594 177.078125 189.253906 C 176.789062 189.226562 176.472656 189.253906 176.195312 189.332031 C 175.867188 189.425781 175.578125 189.597656 175.261719 189.6875 C 174.972656 189.765625 174.695312 189.953125 174.472656 190.160156 C 174.011719 190.597656 173.734375 191.199219 173.75 191.832031 C 173.789062 193.09375 174.734375 194.121094 175.90625 194.421875 Z M 175.246094 190.464844 C 175.484375 190.304688 175.746094 190.203125 176.023438 190.121094 C 176.234375 190.070312 176.417969 189.964844 176.640625 189.9375 C 177.089844 189.871094 177.5625 189.976562 177.945312 190.242188 C 178.695312 190.742188 179.0625 191.765625 178.839844 192.632812 C 178.578125 193.621094 177.472656 193.9375 176.5625 193.871094 C 175.628906 193.792969 174.746094 193.210938 174.5 192.277344 C 174.289062 191.476562 174.65625 190.84375 175.246094 190.464844 Z M 175.246094 190.464844 " fill-opacity="1" fill-rule="nonzero"/><path fill="rgb(16.079712%, 15.689087%, 15.289307%)" d="M 174.445312 198.117188 C 173.945312 197.882812 173.367188 197.828125 172.828125 197.972656 C 172.472656 198.066406 172.117188 198.25 171.839844 198.5 C 171.523438 198.761719 171.394531 199.066406 171.3125 199.460938 C 171.167969 200.234375 171.300781 201.0625 171.789062 201.707031 C 172.378906 202.484375 173.394531 202.917969 174.351562 202.65625 C 175.289062 202.40625 175.996094 201.5625 176.023438 200.589844 C 176.039062 199.550781 175.367188 198.539062 174.445312 198.117188 Z M 174.394531 201.917969 C 173.734375 202.207031 172.972656 201.972656 172.472656 201.472656 C 171.917969 200.90625 171.789062 200.039062 172.023438 199.289062 C 172.0625 199.261719 172.105469 199.234375 172.128906 199.183594 C 172.523438 198.605469 173.300781 198.421875 173.945312 198.632812 C 174.644531 198.867188 175.183594 199.523438 175.3125 200.25 C 175.445312 200.972656 175.050781 201.628906 174.394531 201.917969 Z M 174.394531 201.917969 " fill-opacity="1" fill-rule="nonzero"/><path fill="rgb(16.079712%, 15.689087%, 15.289307%)" d="M 181.65625 186.558594 C 182.613281 186.925781 183.785156 186.636719 184.507812 185.914062 C 184.90625 185.519531 185.15625 184.992188 185.207031 184.441406 C 185.246094 184.074219 185.195312 183.679688 185.0625 183.335938 C 184.917969 182.957031 184.679688 182.730469 184.339844 182.519531 C 183.65625 182.113281 182.824219 181.96875 182.0625 182.207031 C 181.140625 182.496094 180.378906 183.308594 180.300781 184.296875 C 180.195312 185.257812 180.734375 186.214844 181.65625 186.558594 Z M 182.023438 182.929688 C 182.746094 182.601562 183.601562 182.769531 184.21875 183.257812 C 184.234375 183.296875 184.246094 183.351562 184.285156 183.390625 C 184.695312 183.953125 184.601562 184.742188 184.179688 185.28125 C 183.71875 185.863281 182.917969 186.152344 182.195312 186.019531 C 181.484375 185.886719 180.996094 185.296875 180.945312 184.585938 C 180.90625 183.863281 181.378906 183.230469 182.023438 182.929688 Z M 182.023438 182.929688 " fill-opacity="1" fill-rule="nonzero"/><path fill="rgb(16.079712%, 15.689087%, 15.289307%)" d="M 179.035156 177.367188 C 179.972656 177.117188 180.679688 176.273438 180.707031 175.300781 C 180.722656 174.277344 180.050781 173.261719 179.128906 172.84375 C 178.628906 172.605469 178.050781 172.554688 177.511719 172.699219 C 177.15625 172.789062 176.800781 172.972656 176.523438 173.222656 C 176.207031 173.488281 176.078125 173.789062 175.996094 174.183594 C 175.851562 174.960938 175.984375 175.789062 176.472656 176.433594 C 177.0625 177.195312 178.078125 177.628906 179.035156 177.367188 Z M 176.722656 174.027344 C 176.761719 174 176.800781 173.972656 176.828125 173.921875 C 177.222656 173.34375 177.996094 173.15625 178.640625 173.367188 C 179.339844 173.605469 179.878906 174.261719 180.011719 174.984375 C 180.128906 175.695312 179.746094 176.367188 179.089844 176.644531 C 178.433594 176.933594 177.667969 176.695312 177.167969 176.195312 C 176.601562 175.628906 176.484375 174.761719 176.722656 174.027344 Z M 176.722656 174.027344 " fill-opacity="1" fill-rule="nonzero"/><g clip-path="url(#id4)"><path fill="rgb(16.079712%, 15.689087%, 15.289307%)" d="M 162.578125 86.546875 C 161.90625 82.890625 161 79.207031 159.617188 75.75 C 158.382812 72.660156 156.515625 69.6875 153.488281 68.070312 C 152.144531 67.347656 150.648438 66.9375 149.105469 66.992188 C 149.054688 66.9375 148.988281 66.914062 148.898438 66.914062 C 140.832031 66.753906 132.753906 67.136719 124.742188 68.042969 C 122.742188 68.265625 120.730469 68.53125 118.742188 68.832031 C 117.007812 69.09375 115.257812 69.34375 113.546875 69.753906 C 110.496094 70.488281 107.585938 71.898438 105.890625 74.660156 C 104.285156 77.273438 103.945312 80.472656 103.863281 83.46875 C 103.773438 87.296875 103.917969 91.125 103.957031 94.949219 C 104.007812 99.066406 104.046875 103.167969 104.101562 107.285156 L 104.167969 113.320312 C 104.191406 115.230469 104.179688 117.136719 104.285156 119.027344 C 104.484375 122.34375 105.21875 125.628906 107.46875 128.195312 C 109.441406 130.445312 112.207031 131.863281 115.007812 132.796875 C 118.375 133.902344 121.953125 134.363281 125.480469 134.558594 C 126.859375 134.640625 128.242188 134.652344 129.636719 134.625 C 129.636719 134.640625 129.636719 134.640625 129.636719 134.652344 C 129.585938 140.414062 129.625 147.972656 129.6875 153.722656 C 129.753906 159.480469 129.859375 165.226562 130.042969 170.988281 C 130.214844 176.707031 130.4375 182.441406 130.730469 188.164062 C 131.019531 193.910156 131.347656 199.65625 131.753906 205.402344 C 131.953125 208.285156 132.164062 211.175781 132.398438 214.058594 C 132.503906 215.386719 132.542969 216.738281 132.769531 218.042969 C 132.953125 219.09375 133.359375 220.132812 134.265625 220.777344 C 135.03125 221.316406 136.058594 221.511719 136.886719 221.011719 C 137.714844 220.515625 138.03125 219.527344 138.160156 218.621094 C 138.347656 217.316406 138.386719 215.976562 138.492188 214.660156 C 138.597656 213.242188 138.699219 211.820312 138.792969 210.402344 C 139.175781 204.695312 139.476562 198.972656 139.699219 193.265625 C 139.925781 187.570312 140.070312 181.875 140.121094 176.195312 C 140.1875 170.476562 140.160156 164.753906 140.070312 159.035156 C 139.964844 153.3125 139.792969 147.59375 139.53125 141.871094 C 139.464844 140.515625 139.292969 135.535156 139.214844 133.96875 C 142.542969 133.5625 145.859375 133.023438 149.148438 132.441406 C 150.910156 132.128906 152.6875 131.878906 154.410156 131.445312 C 155.894531 131.074219 157.355469 130.523438 158.554688 129.550781 C 161.199219 127.394531 161.554688 123.554688 162.09375 120.4375 C 162.738281 116.703125 163.222656 112.941406 163.527344 109.167969 C 164.117188 101.605469 163.933594 93.988281 162.578125 86.546875 Z M 136.9375 213.003906 C 136.898438 213.519531 136.820312 214.042969 136.675781 214.542969 C 136.558594 214.976562 136.371094 215.4375 135.964844 215.6875 C 135.148438 216.175781 134.515625 215.34375 134.359375 214.621094 C 134.148438 213.648438 134.1875 212.609375 134.425781 211.648438 C 134.609375 210.902344 135.003906 209.480469 136.042969 209.757812 C 136.082031 209.769531 136.109375 209.78125 136.136719 209.796875 C 136.1875 209.808594 136.226562 209.835938 136.265625 209.875 C 136.636719 210.242188 136.78125 210.742188 136.859375 211.242188 C 136.953125 211.835938 136.992188 212.425781 136.9375 213.003906 Z M 163.132812 103.984375 C 163.027344 107.679688 162.699219 111.375 162.222656 115.058594 C 161.988281 116.886719 161.699219 118.714844 161.382812 120.527344 C 161.09375 122.199219 160.84375 123.894531 160.316406 125.511719 C 159.816406 127.050781 159 128.445312 157.632812 129.367188 C 156.371094 130.21875 154.871094 130.640625 153.394531 130.957031 C 149.738281 131.734375 146.015625 132.3125 142.320312 132.863281 C 134.6875 133.980469 126.859375 134.574219 119.21875 133.167969 C 116.296875 132.628906 113.390625 131.757812 110.863281 130.167969 C 109.640625 129.390625 108.507812 128.445312 107.613281 127.3125 C 106.601562 126.023438 105.929688 124.527344 105.535156 122.949219 C 105.113281 121.292969 104.996094 119.582031 104.929688 117.886719 C 104.863281 116.003906 104.863281 114.125 104.851562 112.242188 C 104.8125 108.296875 104.757812 104.351562 104.71875 100.40625 C 104.667969 96.4375 104.628906 92.464844 104.574219 88.492188 C 104.535156 85.257812 104.351562 81.945312 105.046875 78.773438 C 105.351562 77.355469 105.851562 75.960938 106.652344 74.75 C 107.496094 73.449219 108.691406 72.4375 110.074219 71.710938 C 113.007812 70.175781 116.507812 69.832031 119.742188 69.359375 C 127.503906 68.253906 135.347656 67.648438 143.1875 67.558594 C 145.070312 67.53125 146.964844 67.542969 148.84375 67.582031 C 148.898438 67.636719 148.976562 67.675781 149.066406 67.664062 C 152.410156 67.53125 155.328125 69.6875 157.121094 72.355469 C 159.066406 75.25 160.054688 78.761719 160.90625 82.101562 C 162.738281 89.242188 163.34375 96.632812 163.132812 103.984375 Z M 163.132812 103.984375 " fill-opacity="1" fill-rule="nonzero"/></g><path fill="rgb(16.079712%, 15.689087%, 15.289307%)" d="M 117.796875 76.367188 C 117.414062 75.882812 116.902344 75.511719 116.296875 75.382812 C 116.242188 75.328125 116.164062 75.277344 116.074219 75.277344 C 115.375 75.199219 114.757812 75.605469 114.390625 76.171875 C 113.953125 76.855469 113.941406 77.710938 113.914062 78.5 C 113.835938 80.445312 113.757812 81.734375 113.691406 83.679688 C 113.546875 87.53125 113.390625 91.371094 113.246094 95.226562 C 112.941406 102.984375 112.601562 109.414062 112.902344 117.175781 C 112.96875 119.09375 113.085938 121.015625 113.246094 122.921875 C 113.363281 124.34375 113.375 126.210938 114.847656 126.945312 C 115.414062 127.234375 116.085938 127.25 116.625 126.878906 C 117.140625 126.523438 117.375 125.90625 117.492188 125.316406 C 117.636719 124.527344 117.636719 123.722656 117.691406 122.921875 C 117.742188 121.949219 117.808594 120.960938 117.863281 119.988281 C 118.296875 112.203125 118.574219 105.746094 118.703125 97.949219 C 118.769531 94.09375 118.796875 90.230469 118.78125 86.375 C 118.769531 84.417969 118.757812 83.140625 118.730469 81.179688 C 118.679688 79.589844 118.835938 77.710938 117.796875 76.367188 Z M 118.035156 95.277344 C 117.953125 102.578125 117.730469 108.523438 117.375 115.808594 C 117.285156 117.621094 117.191406 119.4375 117.085938 121.25 C 117.035156 122.144531 116.980469 123.039062 116.929688 123.933594 C 116.890625 124.605469 116.890625 125.355469 116.546875 125.960938 C 116.164062 126.628906 115.402344 126.628906 114.835938 126.183594 C 114.246094 125.710938 114.085938 124.894531 114.007812 124.183594 C 113.808594 122.421875 113.71875 120.632812 113.625 118.859375 C 113.269531 111.585938 113.496094 105.667969 113.785156 98.410156 C 113.929688 94.777344 114.074219 91.164062 114.203125 87.53125 C 114.269531 85.71875 114.351562 84.574219 114.414062 82.773438 C 114.453125 81.878906 114.480469 80.984375 114.519531 80.089844 C 114.558594 79.207031 114.519531 78.289062 114.664062 77.421875 C 114.769531 76.75 115.140625 76.011719 115.863281 75.945312 C 115.890625 75.960938 115.929688 75.988281 115.96875 75.988281 C 117.703125 76.277344 117.96875 78.273438 117.992188 79.707031 C 118.035156 81.484375 118.046875 82.589844 118.058594 84.363281 C 118.085938 88.007812 118.074219 91.648438 118.035156 95.277344 Z M 118.035156 95.277344 " fill-opacity="1" fill-rule="nonzero"/><path fill="rgb(16.079712%, 15.689087%, 15.289307%)" d="M 130.832031 75.699219 C 130.453125 75.210938 129.9375 74.84375 129.335938 74.710938 C 129.28125 74.660156 129.214844 74.605469 129.109375 74.605469 C 128.414062 74.527344 127.78125 74.933594 127.425781 75.511719 C 126.992188 76.195312 126.980469 77.050781 126.953125 77.828125 C 126.875 79.773438 126.796875 81.734375 126.730469 83.679688 C 126.585938 87.53125 126.425781 91.371094 126.28125 95.226562 C 125.980469 102.984375 125.636719 110.757812 125.941406 118.53125 C 126.003906 120.449219 126.125 122.371094 126.28125 124.277344 C 126.398438 125.695312 126.414062 127.5625 127.886719 128.300781 C 128.453125 128.589844 129.125 128.601562 129.664062 128.234375 C 130.175781 127.878906 130.414062 127.261719 130.53125 126.667969 C 130.675781 125.878906 130.675781 125.078125 130.730469 124.277344 C 130.78125 123.304688 130.847656 122.316406 130.898438 121.34375 C 131.332031 113.558594 131.609375 105.761719 131.742188 97.960938 C 131.808594 94.109375 131.832031 90.242188 131.820312 86.390625 C 131.808594 84.429688 131.792969 82.46875 131.769531 80.523438 C 131.714844 78.917969 131.886719 77.039062 130.832031 75.699219 Z M 131.070312 95.277344 C 130.992188 102.578125 130.769531 109.863281 130.414062 117.160156 C 130.320312 118.976562 130.230469 120.792969 130.125 122.605469 C 130.070312 123.5 130.019531 124.394531 129.964844 125.289062 C 129.925781 125.960938 129.925781 126.710938 129.585938 127.3125 C 129.203125 127.984375 128.441406 127.984375 127.875 127.539062 C 127.28125 127.0625 127.125 126.25 127.046875 125.539062 C 126.847656 123.777344 126.753906 121.988281 126.664062 120.210938 C 126.296875 112.953125 126.53125 105.679688 126.808594 98.421875 C 126.953125 94.792969 127.097656 91.175781 127.230469 87.546875 C 127.296875 85.730469 127.375 83.917969 127.441406 82.101562 C 127.480469 81.207031 127.503906 80.3125 127.546875 79.417969 C 127.585938 78.539062 127.546875 77.617188 127.691406 76.75 C 127.792969 76.078125 128.175781 75.34375 128.886719 75.289062 C 128.914062 75.304688 128.953125 75.328125 128.992188 75.328125 C 130.730469 75.617188 130.992188 77.617188 131.019531 79.050781 C 131.058594 80.824219 131.070312 82.601562 131.082031 84.375 C 131.125 88.007812 131.109375 91.648438 131.070312 95.277344 Z M 131.070312 95.277344 " fill-opacity="1" fill-rule="nonzero"/><path fill="rgb(16.079712%, 15.689087%, 15.289307%)" d="M 143.871094 75.699219 C 143.488281 75.210938 142.976562 74.84375 142.371094 74.710938 C 142.320312 74.660156 142.253906 74.605469 142.148438 74.605469 C 141.449219 74.527344 140.820312 74.933594 140.464844 75.511719 C 140.03125 76.195312 140.015625 77.050781 139.992188 77.828125 C 139.910156 79.773438 139.832031 81.734375 139.765625 83.679688 C 139.621094 87.53125 139.464844 91.371094 139.320312 95.226562 C 139.015625 102.984375 138.675781 110.757812 138.976562 118.53125 C 139.042969 120.449219 139.160156 122.371094 139.320312 124.277344 C 139.4375 125.695312 139.449219 127.5625 140.925781 128.300781 C 141.488281 128.589844 142.160156 128.601562 142.699219 128.234375 C 143.214844 127.878906 143.449219 127.261719 143.570312 126.667969 C 143.714844 125.878906 143.714844 125.078125 143.765625 124.277344 C 143.820312 123.304688 143.882812 122.316406 143.9375 121.34375 C 144.34375 113.558594 144.621094 105.761719 144.753906 97.960938 C 144.820312 94.109375 144.84375 90.242188 144.832031 86.390625 C 144.820312 84.429688 144.804688 82.46875 144.777344 80.523438 C 144.753906 78.917969 144.921875 77.039062 143.871094 75.699219 Z M 144.121094 95.277344 C 144.042969 102.578125 143.820312 109.863281 143.464844 117.160156 C 143.371094 118.976562 143.28125 120.792969 143.175781 122.605469 C 143.121094 123.5 143.070312 124.394531 143.015625 125.289062 C 142.976562 125.960938 142.976562 126.710938 142.632812 127.3125 C 142.253906 127.984375 141.488281 127.984375 140.925781 127.539062 C 140.332031 127.0625 140.175781 126.25 140.09375 125.539062 C 139.898438 123.777344 139.804688 121.988281 139.714844 120.210938 C 139.347656 112.953125 139.582031 105.679688 139.859375 98.421875 C 140.003906 94.792969 140.148438 91.175781 140.28125 87.546875 C 140.34375 85.730469 140.425781 83.917969 140.492188 82.101562 C 140.53125 81.207031 140.554688 80.3125 140.59375 79.417969 C 140.636719 78.539062 140.59375 77.617188 140.742188 76.75 C 140.84375 76.078125 141.226562 75.34375 141.9375 75.289062 C 141.964844 75.304688 142.003906 75.328125 142.042969 75.328125 C 143.777344 75.617188 144.042969 77.617188 144.070312 79.050781 C 144.109375 80.824219 144.121094 82.601562 144.132812 84.375 C 144.160156 88.007812 144.160156 91.648438 144.121094 95.277344 Z M 144.121094 95.277344 " fill-opacity="1" fill-rule="nonzero"/><path fill="rgb(16.079712%, 15.689087%, 15.289307%)" d="M 155.09375 86.257812 C 154.988281 84.296875 154.882812 82.351562 154.75 80.390625 C 154.644531 78.800781 154.726562 76.90625 153.621094 75.632812 C 153.210938 75.15625 152.6875 74.828125 152.066406 74.710938 C 152.015625 74.660156 151.9375 74.617188 151.84375 74.605469 C 151.148438 74.566406 150.542969 75 150.199219 75.59375 C 149.804688 76.289062 149.832031 77.15625 149.832031 77.933594 C 149.855469 79.890625 149.871094 81.839844 149.898438 83.796875 C 149.9375 87.652344 149.976562 91.503906 150.015625 95.359375 C 150.09375 103.128906 150.160156 108.035156 150.832031 115.769531 C 151 117.675781 151.199219 119.59375 151.460938 121.488281 C 151.644531 122.894531 151.765625 124.761719 153.265625 125.433594 C 153.84375 125.683594 154.515625 125.671875 155.027344 125.277344 C 155.527344 124.894531 155.738281 124.261719 155.816406 123.671875 C 155.921875 122.882812 155.882812 122.066406 155.894531 121.277344 C 155.910156 120.304688 155.910156 119.320312 155.921875 118.34375 C 155.976562 110.546875 155.855469 105.617188 155.59375 97.816406 C 155.460938 93.964844 155.289062 90.109375 155.09375 86.257812 Z M 155.238281 119.632812 C 155.226562 120.527344 155.226562 121.421875 155.210938 122.316406 C 155.199219 122.988281 155.25 123.738281 154.933594 124.355469 C 154.59375 125.039062 153.832031 125.078125 153.238281 124.65625 C 152.621094 124.210938 152.421875 123.410156 152.304688 122.699219 C 152.015625 120.949219 151.832031 119.171875 151.660156 117.398438 C 150.9375 110.164062 150.804688 105.761719 150.726562 98.5 C 150.6875 94.871094 150.648438 91.242188 150.605469 87.625 C 150.59375 85.808594 150.566406 83.996094 150.554688 82.179688 C 150.542969 81.285156 150.542969 80.390625 150.527344 79.496094 C 150.515625 78.617188 150.4375 77.695312 150.527344 76.816406 C 150.605469 76.144531 150.9375 75.382812 151.644531 75.289062 C 151.671875 75.304688 151.710938 75.316406 151.75 75.328125 C 153.5 75.527344 153.871094 77.523438 153.960938 78.945312 C 154.09375 80.722656 154.183594 82.496094 154.289062 84.273438 C 154.5 87.902344 154.671875 91.53125 154.804688 95.160156 C 155.082031 102.445312 155.238281 106.878906 155.238281 114.175781 C 155.265625 116.003906 155.25 117.820312 155.238281 119.632812 Z M 155.238281 119.632812 " fill-opacity="1" fill-rule="nonzero"/><path fill="rgb(16.079712%, 15.689087%, 15.289307%)" d="M 117.796875 76.367188 C 117.414062 75.882812 116.902344 75.511719 116.296875 75.382812 C 116.242188 75.328125 116.164062 75.277344 116.074219 75.277344 C 115.375 75.199219 114.757812 75.605469 114.390625 76.171875 C 113.953125 76.855469 113.941406 77.710938 113.914062 78.5 C 113.835938 80.445312 113.757812 81.734375 113.691406 83.679688 C 113.546875 87.53125 113.390625 91.371094 113.246094 95.226562 C 112.941406 102.984375 112.601562 109.414062 112.902344 117.175781 C 112.96875 119.09375 113.085938 121.015625 113.246094 122.921875 C 113.363281 124.34375 113.375 126.210938 114.847656 126.945312 C 115.414062 127.234375 116.085938 127.25 116.625 126.878906 C 117.140625 126.523438 117.375 125.90625 117.492188 125.316406 C 117.636719 124.527344 117.636719 123.722656 117.691406 122.921875 C 117.742188 121.949219 117.808594 120.960938 117.863281 119.988281 C 118.296875 112.203125 118.574219 105.746094 118.703125 97.949219 C 118.769531 94.09375 118.796875 90.230469 118.78125 86.375 C 118.769531 84.417969 118.757812 83.140625 118.730469 81.179688 C 118.679688 79.589844 118.835938 77.710938 117.796875 76.367188 Z M 118.035156 95.277344 C 117.953125 102.578125 117.730469 108.523438 117.375 115.808594 C 117.285156 117.621094 117.191406 119.4375 117.085938 121.25 C 117.035156 122.144531 116.980469 123.039062 116.929688 123.933594 C 116.890625 124.605469 116.890625 125.355469 116.546875 125.960938 C 116.164062 126.628906 115.402344 126.628906 114.835938 126.183594 C 114.246094 125.710938 114.085938 124.894531 114.007812 124.183594 C 113.808594 122.421875 113.71875 120.632812 113.625 118.859375 C 113.269531 111.585938 113.496094 105.667969 113.785156 98.410156 C 113.929688 94.777344 114.074219 91.164062 114.203125 87.53125 C 114.269531 85.71875 114.351562 84.574219 114.414062 82.773438 C 114.453125 81.878906 114.480469 80.984375 114.519531 80.089844 C 114.558594 79.207031 114.519531 78.289062 114.664062 77.421875 C 114.769531 76.75 115.140625 76.011719 115.863281 75.945312 C 115.890625 75.960938 115.929688 75.988281 115.96875 75.988281 C 117.703125 76.277344 117.96875 78.273438 117.992188 79.707031 C 118.035156 81.484375 118.046875 82.589844 118.058594 84.363281 C 118.085938 88.007812 118.074219 91.648438 118.035156 95.277344 Z M 118.035156 95.277344 " fill-opacity="1" fill-rule="nonzero"/><path fill="rgb(16.079712%, 15.689087%, 15.289307%)" d="M 130.832031 75.699219 C 130.453125 75.210938 129.9375 74.84375 129.335938 74.710938 C 129.28125 74.660156 129.214844 74.605469 129.109375 74.605469 C 128.414062 74.527344 127.78125 74.933594 127.425781 75.511719 C 126.992188 76.195312 126.980469 77.050781 126.953125 77.828125 C 126.875 79.773438 126.796875 81.734375 126.730469 83.679688 C 126.585938 87.53125 126.425781 91.371094 126.28125 95.226562 C 125.980469 102.984375 125.636719 110.757812 125.941406 118.53125 C 126.003906 120.449219 126.125 122.371094 126.28125 124.277344 C 126.398438 125.695312 126.414062 127.5625 127.886719 128.300781 C 128.453125 128.589844 129.125 128.601562 129.664062 128.234375 C 130.175781 127.878906 130.414062 127.261719 130.53125 126.667969 C 130.675781 125.878906 130.675781 125.078125 130.730469 124.277344 C 130.78125 123.304688 130.847656 122.316406 130.898438 121.34375 C 131.332031 113.558594 131.609375 105.761719 131.742188 97.960938 C 131.808594 94.109375 131.832031 90.242188 131.820312 86.390625 C 131.808594 84.429688 131.792969 82.46875 131.769531 80.523438 C 131.714844 78.917969 131.886719 77.039062 130.832031 75.699219 Z M 131.070312 95.277344 C 130.992188 102.578125 130.769531 109.863281 130.414062 117.160156 C 130.320312 118.976562 130.230469 120.792969 130.125 122.605469 C 130.070312 123.5 130.019531 124.394531 129.964844 125.289062 C 129.925781 125.960938 129.925781 126.710938 129.585938 127.3125 C 129.203125 127.984375 128.441406 127.984375 127.875 127.539062 C 127.28125 127.0625 127.125 126.25 127.046875 125.539062 C 126.847656 123.777344 126.753906 121.988281 126.664062 120.210938 C 126.296875 112.953125 126.53125 105.679688 126.808594 98.421875 C 126.953125 94.792969 127.097656 91.175781 127.230469 87.546875 C 127.296875 85.730469 127.375 83.917969 127.441406 82.101562 C 127.480469 81.207031 127.503906 80.3125 127.546875 79.417969 C 127.585938 78.539062 127.546875 77.617188 127.691406 76.75 C 127.792969 76.078125 128.175781 75.34375 128.886719 75.289062 C 128.914062 75.304688 128.953125 75.328125 128.992188 75.328125 C 130.730469 75.617188 130.992188 77.617188 131.019531 79.050781 C 131.058594 80.824219 131.070312 82.601562 131.082031 84.375 C 131.125 88.007812 131.109375 91.648438 131.070312 95.277344 Z M 131.070312 95.277344 " fill-opacity="1" fill-rule="nonzero"/><path fill="rgb(16.079712%, 15.689087%, 15.289307%)" d="M 143.871094 75.699219 C 143.488281 75.210938 142.976562 74.84375 142.371094 74.710938 C 142.320312 74.660156 142.253906 74.605469 142.148438 74.605469 C 141.449219 74.527344 140.820312 74.933594 140.464844 75.511719 C 140.03125 76.195312 140.015625 77.050781 139.992188 77.828125 C 139.910156 79.773438 139.832031 81.734375 139.765625 83.679688 C 139.621094 87.53125 139.464844 91.371094 139.320312 95.226562 C 139.015625 102.984375 138.675781 110.757812 138.976562 118.53125 C 139.042969 120.449219 139.160156 122.371094 139.320312 124.277344 C 139.4375 125.695312 139.449219 127.5625 140.925781 128.300781 C 141.488281 128.589844 142.160156 128.601562 142.699219 128.234375 C 143.214844 127.878906 143.449219 127.261719 143.570312 126.667969 C 143.714844 125.878906 143.714844 125.078125 143.765625 124.277344 C 143.820312 123.304688 143.882812 122.316406 143.9375 121.34375 C 144.34375 113.558594 144.621094 105.761719 144.753906 97.960938 C 144.820312 94.109375 144.84375 90.242188 144.832031 86.390625 C 144.820312 84.429688 144.804688 82.46875 144.777344 80.523438 C 144.753906 78.917969 144.921875 77.039062 143.871094 75.699219 Z M 144.121094 95.277344 C 144.042969 102.578125 143.820312 109.863281 143.464844 117.160156 C 143.371094 118.976562 143.28125 120.792969 143.175781 122.605469 C 143.121094 123.5 143.070312 124.394531 143.015625 125.289062 C 142.976562 125.960938 142.976562 126.710938 142.632812 127.3125 C 142.253906 127.984375 141.488281 127.984375 140.925781 127.539062 C 140.332031 127.0625 140.175781 126.25 140.09375 125.539062 C 139.898438 123.777344 139.804688 121.988281 139.714844 120.210938 C 139.347656 112.953125 139.582031 105.679688 139.859375 98.421875 C 140.003906 94.792969 140.148438 91.175781 140.28125 87.546875 C 140.34375 85.730469 140.425781 83.917969 140.492188 82.101562 C 140.53125 81.207031 140.554688 80.3125 140.59375 79.417969 C 140.636719 78.539062 140.59375 77.617188 140.742188 76.75 C 140.84375 76.078125 141.226562 75.34375 141.9375 75.289062 C 141.964844 75.304688 142.003906 75.328125 142.042969 75.328125 C 143.777344 75.617188 144.042969 77.617188 144.070312 79.050781 C 144.109375 80.824219 144.121094 82.601562 144.132812 84.375 C 144.160156 88.007812 144.160156 91.648438 144.121094 95.277344 Z M 144.121094 95.277344 " fill-opacity="1" fill-rule="nonzero"/><path fill="rgb(16.079712%, 15.689087%, 15.289307%)" d="M 155.09375 86.257812 C 154.988281 84.296875 154.882812 82.351562 154.75 80.390625 C 154.644531 78.800781 154.726562 76.90625 153.621094 75.632812 C 153.210938 75.15625 152.6875 74.828125 152.066406 74.710938 C 152.015625 74.660156 151.9375 74.617188 151.84375 74.605469 C 151.148438 74.566406 150.542969 75 150.199219 75.59375 C 149.804688 76.289062 149.832031 77.15625 149.832031 77.933594 C 149.855469 79.890625 149.871094 81.839844 149.898438 83.796875 C 149.9375 87.652344 149.976562 91.503906 150.015625 95.359375 C 150.09375 103.128906 150.160156 108.035156 150.832031 115.769531 C 151 117.675781 151.199219 119.59375 151.460938 121.488281 C 151.644531 122.894531 151.765625 124.761719 153.265625 125.433594 C 153.84375 125.683594 154.515625 125.671875 155.027344 125.277344 C 155.527344 124.894531 155.738281 124.261719 155.816406 123.671875 C 155.921875 122.882812 155.882812 122.066406 155.894531 121.277344 C 155.910156 120.304688 155.910156 119.320312 155.921875 118.34375 C 155.976562 110.546875 155.855469 105.617188 155.59375 97.816406 C 155.460938 93.964844 155.289062 90.109375 155.09375 86.257812 Z M 155.238281 119.632812 C 155.226562 120.527344 155.226562 121.421875 155.210938 122.316406 C 155.199219 122.988281 155.25 123.738281 154.933594 124.355469 C 154.59375 125.039062 153.832031 125.078125 153.238281 124.65625 C 152.621094 124.210938 152.421875 123.410156 152.304688 122.699219 C 152.015625 120.949219 151.832031 119.171875 151.660156 117.398438 C 150.9375 110.164062 150.804688 105.761719 150.726562 98.5 C 150.6875 94.871094 150.648438 91.242188 150.605469 87.625 C 150.59375 85.808594 150.566406 83.996094 150.554688 82.179688 C 150.542969 81.285156 150.542969 80.390625 150.527344 79.496094 C 150.515625 78.617188 150.4375 77.695312 150.527344 76.816406 C 150.605469 76.144531 150.9375 75.382812 151.644531 75.289062 C 151.671875 75.304688 151.710938 75.316406 151.75 75.328125 C 153.5 75.527344 153.871094 77.523438 153.960938 78.945312 C 154.09375 80.722656 154.183594 82.496094 154.289062 84.273438 C 154.5 87.902344 154.671875 91.53125 154.804688 95.160156 C 155.082031 102.445312 155.238281 106.878906 155.238281 114.175781 C 155.265625 116.003906 155.25 117.820312 155.238281 119.632812 Z M 155.238281 119.632812 " fill-opacity="1" fill-rule="nonzero"/><g clip-path="url(#id5)"><g clip-path="url(#id6)"><g clip-path="url(#id7)"><path fill="rgb(16.079712%, 15.689087%, 15.289307%)" d="M 312.871094 75.71875 C 312.613281 76.308594 312.445312 76.921875 312.375 77.546875 C 312.078125 80.164062 313.199219 82.808594 314.675781 85.238281 C 316.066406 87.507812 317.605469 89.734375 318.765625 92.074219 C 319.292969 93.128906 319.480469 94.136719 319.84375 95.203125 C 320.246094 96.382812 320.535156 97.582031 320.777344 98.78125 C 321.417969 101.894531 321.328125 105.085938 321.6875 108.226562 C 321.523438 108.167969 321.453125 108.1875 321.414062 108.125 C 321.214844 107.726562 320.988281 107.34375 320.832031 106.902344 C 318.757812 101.039062 315.597656 96.945312 312.339844 93.617188 C 310.703125 92.011719 310.316406 92.464844 310.714844 95.257812 C 310.871094 96.347656 311.105469 97.378906 311.398438 98.371094 C 311.660156 99.367188 311.953125 100.316406 312.3125 101.230469 C 312.667969 102.136719 313.085938 103.003906 313.542969 103.839844 C 313.957031 104.671875 314.421875 105.472656 314.921875 106.230469 C 317.058594 109.398438 319.046875 112.140625 321.308594 113.777344 C 321.65625 114.039062 321.957031 114.363281 322.230469 114.75 C 322.226562 114.84375 322.234375 114.933594 322.226562 115.015625 C 322.21875 115.191406 322.394531 115.300781 322.574219 115.320312 C 323.046875 116.238281 323.363281 117.394531 323.585938 118.796875 C 323.824219 120.15625 323.914062 121.515625 324.085938 122.875 C 324.246094 124.238281 324.375 125.605469 324.433594 126.96875 C 324.515625 128.628906 324.839844 130.339844 324.511719 132.332031 C 323.917969 131.429688 323.636719 130.410156 323.253906 129.449219 C 321.695312 125.214844 319.664062 121.792969 317.148438 120.414062 C 315.335938 119.421875 314.53125 120.953125 315.03125 124.746094 C 315.257812 127.21875 315.835938 129.355469 316.859375 130.816406 C 318.746094 133.519531 320.617188 136.328125 322.535156 138.59375 C 323.535156 139.757812 324.625 141.097656 324.566406 143.738281 C 324.574219 145.992188 324.335938 148.25 324.03125 150.582031 C 323.714844 152.910156 323.421875 155.320312 322.972656 157.832031 C 322.320312 156.609375 322.359375 155.300781 322.292969 154.167969 C 322.113281 151.402344 321.757812 148.917969 321.167969 146.785156 C 320.558594 144.652344 319.625 142.875 318.484375 141.546875 C 317.878906 140.859375 317.300781 140.308594 316.582031 141.363281 C 315.851562 142.449219 315.890625 143.890625 316 145.3125 C 316.152344 150.078125 316.972656 154.191406 318.433594 157.320312 C 319.226562 159.058594 319.816406 161.125 320.535156 163 C 321.195312 164.734375 321.210938 166.710938 320.464844 169.238281 C 319.914062 171.335938 319.351562 173.433594 318.792969 175.542969 L 316.863281 181.796875 C 316.421875 183.304688 315.878906 184.792969 315.191406 186.621094 C 314.828125 185.511719 315.140625 184.257812 315.253906 183.1875 C 315.691406 178.351562 315.371094 174.289062 314.566406 170.378906 C 314.328125 169.117188 313.925781 168.164062 313.441406 167.320312 C 313.03125 166.609375 312.527344 166.527344 311.835938 167.15625 C 311.089844 167.847656 310.878906 168.949219 310.648438 170.199219 C 310.425781 171.421875 310.257812 172.59375 310.160156 173.722656 C 310.023438 174.839844 309.925781 175.910156 309.90625 176.9375 C 309.855469 178.992188 310.070312 180.886719 310.488281 182.632812 C 310.84375 184.335938 311.199219 186.019531 311.558594 187.710938 C 311.910156 189.429688 312.0625 191.265625 311.730469 193.246094 C 311.398438 195.238281 310.859375 197.453125 309.609375 199.851562 C 307.667969 203.78125 305.761719 207.789062 303.511719 211.613281 C 302.378906 213.464844 301.367188 215.351562 300.195312 217.191406 L 298.5 219.96875 C 298.292969 220.28125 298.078125 220.597656 297.875 220.910156 C 297.691406 221.179688 297.515625 221.457031 297.332031 221.722656 C 297.183594 221.941406 296.886719 222.25 297.15625 222.511719 C 297.71875 223.058594 298.453125 221.691406 298.585938 221.492188 C 299.03125 220.816406 299.460938 220.132812 299.890625 219.453125 C 300.753906 218.09375 301.597656 216.71875 302.402344 215.335938 C 304.035156 212.566406 305.574219 209.769531 307.046875 206.945312 C 308.195312 204.746094 309.289062 202.519531 310.351562 200.277344 C 312.90625 194.816406 316.367188 190.109375 319 189.675781 C 320.621094 189.433594 322.152344 188.191406 323.65625 186.484375 C 325.152344 184.78125 326.449219 182.578125 327.839844 180.457031 C 328.933594 178.769531 328.875 177.039062 327.742188 177.113281 C 327.050781 177.164062 326.324219 177.238281 325.535156 177.6875 C 322.949219 179.113281 320.699219 182.3125 318.269531 185.660156 C 317.464844 186.730469 316.699219 188.195312 315.605469 188.480469 C 316.109375 187.058594 316.613281 185.65625 317.117188 184.257812 C 317.550781 182.859375 317.984375 181.457031 318.402344 180.074219 C 318.832031 178.6875 319.253906 177.304688 319.667969 175.933594 C 320.027344 174.542969 320.378906 173.160156 320.746094 171.78125 C 320.898438 171.183594 321.046875 170.507812 321.390625 170.175781 C 323.058594 168.550781 324.65625 166.140625 326.273438 165.5 C 327.878906 164.886719 329.300781 163.410156 330.636719 161.460938 C 331.304688 160.488281 331.9375 159.394531 332.566406 158.234375 C 333.140625 157.0625 333.6875 155.828125 334.242188 154.5625 C 334.796875 153.300781 335.039062 151.726562 335.074219 150.179688 C 335.125 148.058594 334.761719 147.324219 333.746094 147.867188 C 332.164062 148.710938 330.582031 149.714844 329.164062 152.191406 C 327.691406 154.726562 326.324219 157.214844 324.800781 159.992188 C 324.257812 161.019531 323.777344 162.464844 322.941406 163.105469 C 323.332031 160.929688 323.714844 158.832031 324.078125 156.769531 C 324.34375 154.695312 324.605469 152.65625 324.824219 150.625 C 324.972656 149.21875 325.179688 147.890625 325.445312 146.660156 C 325.65625 145.417969 325.929688 144.253906 326.265625 143.171875 C 326.976562 141.003906 327.742188 139.125 328.890625 137.507812 C 330.105469 135.785156 331.230469 134.382812 332.433594 132.851562 C 333.703125 131.242188 334.757812 129.378906 335.59375 126.867188 C 336.171875 125.238281 336.488281 123.414062 335.964844 121.15625 C 335.402344 118.714844 334.273438 118.433594 333.300781 117.953125 C 332.804688 117.71875 332.429688 118.109375 332.035156 118.453125 C 330.699219 119.695312 329.851562 122.347656 329.148438 125.097656 C 328.652344 126.777344 328.140625 128.464844 327.652344 130.246094 C 327.136719 132.027344 326.566406 133.914062 326.042969 135.996094 C 325.78125 134.097656 325.679688 132.378906 325.625 130.738281 C 325.519531 129.097656 325.414062 127.539062 325.320312 126.007812 C 325.214844 124.5625 324.941406 123.058594 324.933594 121.632812 C 324.925781 120.210938 325.054688 118.882812 325.574219 117.761719 C 325.667969 117.570312 325.628906 117.078125 325.660156 116.730469 C 326.140625 111.417969 326.71875 106.878906 328.5625 104.054688 C 329.027344 103.347656 329.433594 102.449219 329.792969 101.609375 C 330.558594 99.800781 330.894531 97.125 330.773438 94.316406 C 330.738281 92.859375 330.347656 91.46875 329.773438 90.480469 C 329.152344 89.492188 328.386719 88.894531 327.664062 88.976562 C 327.066406 89.054688 326.546875 89.375 326.167969 89.996094 C 325.34375 91.433594 324.851562 93.613281 324.945312 96.457031 C 324.933594 101.335938 324.960938 106.320312 324.742188 111.441406 C 324.695312 112.628906 324.859375 114.117188 323.992188 114.589844 C 323.683594 113.226562 323.414062 111.902344 323.203125 110.597656 C 323.085938 109.808594 322.960938 109.035156 322.828125 108.265625 C 322.601562 104.96875 322.148438 101.667969 321.476562 98.386719 C 321.574219 98.375 320.789062 95.136719 320.714844 94.839844 C 320.140625 92.414062 320.21875 90.039062 320.015625 87.613281 C 319.824219 85.261719 319.378906 82.902344 318.445312 80.609375 C 318.050781 79.640625 317.5625 78.695312 316.984375 77.777344 C 316.628906 77.203125 316.21875 76.640625 315.773438 76.085938 C 315.402344 75.628906 314.957031 75.039062 314.21875 74.894531 C 313.460938 74.769531 313.066406 75.261719 312.871094 75.71875 Z M 312.871094 75.71875 " fill-opacity="1" fill-rule="nonzero"/></g></g></g><g clip-path="url(#id8)"><g clip-path="url(#id9)"><g clip-path="url(#id10)"><path fill="rgb(16.079712%, 15.689087%, 15.289307%)" d="M 60.386719 75.828125 C 60.660156 76.410156 60.839844 77.023438 60.925781 77.644531 C 61.289062 80.253906 60.230469 82.925781 58.816406 85.386719 C 57.480469 87.691406 55.996094 89.953125 54.890625 92.324219 C 54.390625 93.394531 54.226562 94.40625 53.890625 95.476562 C 53.515625 96.667969 53.257812 97.875 53.042969 99.078125 C 52.480469 102.207031 52.644531 105.394531 52.363281 108.542969 C 52.527344 108.480469 52.597656 108.5 52.636719 108.4375 C 52.824219 108.03125 53.039062 107.640625 53.1875 107.199219 C 55.117188 101.285156 58.175781 97.117188 61.351562 93.710938 C 62.949219 92.0625 63.347656 92.507812 63.019531 95.308594 C 62.886719 96.402344 62.679688 97.441406 62.410156 98.441406 C 62.171875 99.441406 61.902344 100.394531 61.566406 101.320312 C 61.230469 102.234375 60.835938 103.113281 60.398438 103.957031 C 60.003906 104.800781 59.5625 105.613281 59.078125 106.382812 C 57.019531 109.597656 55.097656 112.394531 52.878906 114.082031 C 52.535156 114.351562 52.242188 114.6875 51.980469 115.078125 C 51.984375 115.171875 51.980469 115.257812 51.988281 115.34375 C 52.003906 115.515625 51.828125 115.632812 51.648438 115.65625 C 51.199219 116.585938 50.914062 117.75 50.722656 119.15625 C 50.519531 120.519531 50.460938 121.882812 50.324219 123.246094 C 50.195312 124.613281 50.101562 125.980469 50.074219 127.347656 C 50.03125 129.007812 49.75 130.726562 50.128906 132.707031 C 50.695312 131.792969 50.957031 130.769531 51.3125 129.796875 C 52.769531 125.523438 54.714844 122.054688 57.199219 120.613281 C 58.988281 119.582031 59.828125 121.089844 59.417969 124.894531 C 59.253906 127.371094 58.726562 129.523438 57.738281 131.007812 C 55.917969 133.753906 54.117188 136.609375 52.253906 138.921875 C 51.285156 140.109375 50.226562 141.476562 50.351562 144.113281 C 50.394531 146.367188 50.6875 148.617188 51.050781 150.941406 C 51.425781 153.261719 51.777344 155.664062 52.285156 158.164062 C 52.90625 156.925781 52.839844 155.621094 52.875 154.484375 C 52.992188 151.714844 53.285156 149.222656 53.820312 147.078125 C 54.378906 144.929688 55.269531 143.128906 56.378906 141.777344 C 56.964844 141.074219 57.527344 140.507812 58.273438 141.546875 C 59.03125 142.609375 59.027344 144.054688 58.953125 145.476562 C 58.917969 150.246094 58.195312 154.378906 56.8125 157.539062 C 56.0625 159.300781 55.523438 161.378906 54.851562 163.273438 C 54.230469 165.019531 54.261719 167 55.070312 169.507812 C 55.675781 171.589844 56.285156 173.675781 56.894531 175.769531 L 58.980469 181.976562 C 59.457031 183.472656 60.035156 184.945312 60.769531 186.753906 C 61.101562 185.636719 60.757812 184.390625 60.621094 183.324219 C 60.0625 178.5 60.285156 174.433594 60.996094 170.5 C 61.203125 169.238281 61.582031 168.273438 62.046875 167.417969 C 62.4375 166.699219 62.941406 166.601562 63.648438 167.214844 C 64.410156 167.886719 64.648438 168.984375 64.910156 170.230469 C 65.164062 171.445312 65.355469 172.613281 65.480469 173.742188 C 65.644531 174.851562 65.769531 175.921875 65.816406 176.945312 C 65.914062 179 65.746094 180.898438 65.371094 182.652344 C 65.058594 184.367188 64.742188 186.058594 64.425781 187.757812 C 64.117188 189.484375 64.007812 191.320312 64.390625 193.292969 C 64.765625 195.277344 65.363281 197.476562 66.667969 199.847656 C 68.707031 203.726562 70.707031 207.6875 73.050781 211.457031 C 74.226562 213.28125 75.285156 215.140625 76.503906 216.949219 L 78.265625 219.6875 C 78.480469 219.996094 78.703125 220.304688 78.914062 220.613281 C 79.101562 220.875 79.285156 221.148438 79.472656 221.410156 C 79.628906 221.625 79.933594 221.929688 79.667969 222.195312 C 79.121094 222.757812 78.355469 221.40625 78.214844 221.210938 C 77.753906 220.546875 77.308594 219.875 76.859375 219.207031 C 75.964844 217.867188 75.089844 216.511719 74.25 215.152344 C 72.550781 212.421875 70.941406 209.664062 69.402344 206.878906 C 68.199219 204.703125 67.050781 202.507812 65.9375 200.292969 C 63.25 194.894531 59.675781 190.269531 57.03125 189.902344 C 55.40625 189.699219 53.84375 188.496094 52.300781 186.824219 C 50.761719 185.160156 49.414062 182.988281 47.972656 180.902344 C 46.835938 179.242188 46.851562 177.511719 47.988281 177.558594 C 48.679688 177.589844 49.40625 177.648438 50.207031 178.078125 C 52.832031 179.441406 55.15625 182.582031 57.667969 185.871094 C 58.496094 186.921875 59.296875 188.367188 60.398438 188.625 C 59.859375 187.214844 59.324219 185.828125 58.785156 184.441406 C 58.316406 183.050781 57.847656 181.660156 57.394531 180.289062 C 56.933594 178.910156 56.480469 177.539062 56.03125 176.179688 C 55.636719 174.800781 55.25 173.425781 54.851562 172.054688 C 54.6875 171.460938 54.519531 170.789062 54.167969 170.46875 C 52.460938 168.882812 50.808594 166.511719 49.175781 165.910156 C 47.550781 165.335938 46.09375 163.894531 44.710938 161.980469 C 44.019531 161.023438 43.359375 159.945312 42.707031 158.800781 C 42.101562 157.644531 41.527344 156.421875 40.941406 155.171875 C 40.355469 153.921875 40.074219 152.355469 40 150.808594 C 39.898438 148.6875 40.246094 147.949219 41.273438 148.464844 C 42.875 149.269531 44.484375 150.234375 45.960938 152.675781 C 47.492188 155.175781 48.917969 157.628906 50.511719 160.367188 C 51.078125 161.382812 51.59375 162.816406 52.445312 163.4375 C 52.003906 161.269531 51.570312 159.183594 51.15625 157.128906 C 50.839844 155.0625 50.53125 153.027344 50.261719 151.003906 C 50.078125 149.601562 49.839844 148.28125 49.542969 147.054688 C 49.300781 145.820312 49 144.660156 48.640625 143.589844 C 47.875 141.4375 47.0625 139.582031 45.875 137.988281 C 44.617188 136.296875 43.460938 134.921875 42.21875 133.421875 C 40.914062 131.84375 39.8125 130.007812 38.917969 127.515625 C 38.300781 125.902344 37.9375 124.085938 38.40625 121.816406 C 38.90625 119.363281 40.03125 119.054688 40.992188 118.550781 C 41.480469 118.300781 41.863281 118.683594 42.269531 119.019531 C 43.632812 120.226562 44.546875 122.859375 45.3125 125.589844 C 45.851562 127.257812 46.40625 128.933594 46.933594 130.699219 C 47.496094 132.46875 48.113281 134.339844 48.6875 136.410156 C 48.902344 134.507812 48.960938 132.785156 48.972656 131.140625 C 49.042969 129.5 49.109375 127.9375 49.164062 126.40625 C 49.238281 124.957031 49.472656 123.449219 49.445312 122.027344 C 49.417969 120.601562 49.253906 119.28125 48.707031 118.171875 C 48.613281 117.980469 48.636719 117.484375 48.597656 117.140625 C 47.992188 111.839844 47.300781 107.320312 45.390625 104.539062 C 44.90625 103.84375 44.476562 102.957031 44.101562 102.125 C 43.292969 100.335938 42.890625 97.667969 42.941406 94.855469 C 42.941406 93.402344 43.296875 92 43.847656 91 C 44.441406 89.996094 45.195312 89.378906 45.917969 89.445312 C 46.519531 89.507812 47.046875 89.816406 47.441406 90.429688 C 48.300781 91.84375 48.84375 94.011719 48.820312 96.855469 C 48.953125 101.734375 49.046875 106.71875 49.386719 111.832031 C 49.460938 113.015625 49.335938 114.507812 50.214844 114.960938 C 50.492188 113.589844 50.726562 112.261719 50.90625 110.953125 C 51.003906 110.160156 51.109375 109.382812 51.226562 108.609375 C 51.367188 105.308594 51.742188 101.996094 52.332031 98.699219 C 52.238281 98.691406 52.945312 95.433594 53.007812 95.136719 C 53.527344 92.699219 53.386719 90.324219 53.53125 87.894531 C 53.667969 85.539062 54.054688 83.167969 54.933594 80.855469 C 55.304688 79.878906 55.769531 78.917969 56.324219 77.988281 C 56.667969 77.40625 57.0625 76.835938 57.492188 76.265625 C 57.851562 75.804688 58.285156 75.203125 59.015625 75.039062 C 59.773438 74.894531 60.179688 75.378906 60.386719 75.828125 Z M 60.386719 75.828125 " fill-opacity="1" fill-rule="nonzero"/></g></g></g><g fill="rgb(16.079712%, 15.689087%, 15.289307%)" fill-opacity="1"><g transform="translate(76.506506, 298.620296)"><g><path d="M 12.1875 -33.953125 C 15.050781 -33.953125 17.351562 -33.398438 19.09375 -32.296875 C 20.84375 -31.203125 21.71875 -29.441406 21.71875 -27.015625 C 21.71875 -25.816406 21.367188 -24.84375 20.671875 -24.09375 C 19.972656 -23.34375 19.023438 -22.96875 17.828125 -22.96875 C 16.660156 -22.96875 15.796875 -23.234375 15.234375 -23.765625 C 15.492188 -24.503906 15.625 -25.335938 15.625 -26.265625 C 15.625 -29.191406 14.328125 -30.65625 11.734375 -30.65625 C 10.472656 -30.65625 9.484375 -30.347656 8.765625 -29.734375 C 8.046875 -29.117188 7.6875 -28.210938 7.6875 -27.015625 C 7.6875 -25.921875 7.96875 -24.921875 8.53125 -24.015625 C 9.101562 -23.117188 9.8125 -22.320312 10.65625 -21.625 C 11.507812 -20.925781 12.664062 -20.078125 14.125 -19.078125 C 15.863281 -17.910156 17.253906 -16.867188 18.296875 -15.953125 C 19.347656 -15.035156 20.238281 -13.9375 20.96875 -12.65625 C 21.707031 -11.375 22.078125 -9.898438 22.078125 -8.234375 C 22.078125 -5.273438 21.0625 -2.976562 19.03125 -1.34375 C 17 0.28125 14.367188 1.09375 11.140625 1.09375 C 8.203125 1.09375 5.773438 0.503906 3.859375 -0.671875 C 1.953125 -1.859375 1 -3.695312 1 -6.1875 C 1 -7.382812 1.347656 -8.359375 2.046875 -9.109375 C 2.742188 -9.859375 3.675781 -10.234375 4.84375 -10.234375 C 6.007812 -10.234375 6.875 -9.96875 7.4375 -9.4375 C 7.207031 -8.769531 7.09375 -7.9375 7.09375 -6.9375 C 7.09375 -3.78125 8.585938 -2.203125 11.578125 -2.203125 C 13.046875 -2.203125 14.242188 -2.609375 15.171875 -3.421875 C 16.109375 -4.234375 16.578125 -5.335938 16.578125 -6.734375 C 16.578125 -7.835938 16.289062 -8.835938 15.71875 -9.734375 C 15.15625 -10.640625 14.445312 -11.441406 13.59375 -12.140625 C 12.75 -12.835938 11.597656 -13.6875 10.140625 -14.6875 C 8.410156 -15.84375 7.019531 -16.878906 5.96875 -17.796875 C 4.914062 -18.710938 4.023438 -19.8125 3.296875 -21.09375 C 2.566406 -22.375 2.203125 -23.847656 2.203125 -25.515625 C 2.203125 -28.179688 3.140625 -30.253906 5.015625 -31.734375 C 6.898438 -33.210938 9.289062 -33.953125 12.1875 -33.953125 Z M 12.1875 -33.953125 "/></g></g></g><g fill="rgb(16.079712%, 15.689087%, 15.289307%)" fill-opacity="1"><g transform="translate(103.47196, 298.620296)"><g><path d="M 19.71875 -32.953125 L 19.71875 -29.265625 L 8.84375 -29.265625 L 8.84375 -18.78125 L 18.234375 -18.78125 L 18.234375 -15.078125 L 8.84375 -15.078125 L 8.84375 -3.703125 L 20.421875 -3.703125 L 20.078125 0 L 3 0 L 3 -32.953125 Z M 19.71875 -32.953125 "/></g></g></g><g fill="rgb(16.079712%, 15.689087%, 15.289307%)" fill-opacity="1"><g transform="translate(128.739632, 298.620296)"><g><path d="M 25.875 -32.953125 L 25.875 0 L 20.03125 0 L 20.03125 -14.828125 L 8.84375 -14.828125 L 8.84375 0 L 3 0 L 3 -32.953125 L 8.84375 -32.953125 L 8.84375 -18.53125 L 20.03125 -18.53125 L 20.03125 -32.953125 Z M 25.875 -32.953125 "/></g></g></g><g fill="rgb(16.079712%, 15.689087%, 15.289307%)" fill-opacity="1"><g transform="translate(160.998227, 298.620296)"><g><path d="M 16.578125 -32.953125 L 25.125 0 L 19.21875 0 L 17.234375 -8.390625 L 7.4375 -8.390625 L 5.5 0 L 0 0 L 9.140625 -32.953125 Z M 8.34375 -12.078125 L 16.375 -12.078125 L 12.328125 -29.21875 Z M 8.34375 -12.078125 "/></g></g></g><g fill="rgb(16.079712%, 15.689087%, 15.289307%)" fill-opacity="1"><g transform="translate(189.511679, 298.620296)"><g><path d="M 20.96875 -32.953125 L 20.625 -29.265625 L 12.9375 -29.265625 L 12.9375 0 L 7.09375 0 L 7.09375 -29.265625 L -0.75 -29.265625 L -0.75 -32.953125 Z M 20.96875 -32.953125 "/></g></g></g><g fill="rgb(16.079712%, 15.689087%, 15.289307%)" fill-opacity="1"><g transform="translate(212.931744, 298.620296)"><g/></g></g><g fill="rgb(16.079712%, 15.689087%, 15.289307%)" fill-opacity="1"><g transform="translate(225.066451, 298.620296)"><g><path d="M 14.234375 -30.46875 C 11.703125 -30.46875 10.023438 -29.140625 9.203125 -26.484375 C 8.390625 -23.835938 7.984375 -20.535156 7.984375 -16.578125 C 7.984375 -12.617188 8.414062 -9.445312 9.28125 -7.0625 C 10.15625 -4.6875 11.972656 -3.5 14.734375 -3.5 C 16.460938 -3.5 17.941406 -3.976562 19.171875 -4.9375 C 20.410156 -5.90625 21.296875 -7.238281 21.828125 -8.9375 C 22.523438 -8.707031 23.019531 -8.347656 23.3125 -7.859375 C 23.613281 -7.378906 23.765625 -6.757812 23.765625 -6 C 23.765625 -4.5 23.304688 -3.210938 22.390625 -2.140625 C 21.484375 -1.078125 20.300781 -0.273438 18.84375 0.265625 C 17.394531 0.816406 15.859375 1.09375 14.234375 1.09375 C 9.703125 1.09375 6.476562 -0.46875 4.5625 -3.59375 C 2.65625 -6.726562 1.703125 -10.972656 1.703125 -16.328125 C 1.703125 -21.648438 2.722656 -25.914062 4.765625 -29.125 C 6.816406 -32.34375 10.125 -33.953125 14.6875 -33.953125 C 17.613281 -33.953125 19.945312 -33.367188 21.6875 -32.203125 C 23.4375 -31.046875 24.3125 -29.203125 24.3125 -26.671875 C 24.3125 -25.472656 23.960938 -24.5 23.265625 -23.75 C 22.566406 -23 21.617188 -22.625 20.421875 -22.625 C 19.253906 -22.625 18.390625 -22.890625 17.828125 -23.421875 C 18.097656 -24.148438 18.234375 -24.984375 18.234375 -25.921875 C 18.234375 -28.953125 16.898438 -30.46875 14.234375 -30.46875 Z M 14.234375 -30.46875 "/></g></g></g><g fill="rgb(16.079712%, 15.689087%, 15.289307%)" fill-opacity="1"><g transform="translate(254.029317, 298.620296)"><g><path d="M 14.53125 -33.953125 C 23.050781 -33.953125 27.3125 -28.273438 27.3125 -16.921875 C 27.3125 -4.910156 23.050781 1.09375 14.53125 1.09375 C 9.875 1.09375 6.570312 -0.453125 4.625 -3.546875 C 2.675781 -6.640625 1.703125 -10.898438 1.703125 -16.328125 C 1.703125 -21.648438 2.707031 -25.914062 4.71875 -29.125 C 6.726562 -32.34375 10 -33.953125 14.53125 -33.953125 Z M 14.53125 -2.390625 C 17.195312 -2.390625 18.945312 -3.710938 19.78125 -6.359375 C 20.613281 -9.015625 21.03125 -12.421875 21.03125 -16.578125 C 21.03125 -20.535156 20.59375 -23.835938 19.71875 -26.484375 C 18.851562 -29.140625 17.125 -30.46875 14.53125 -30.46875 C 11.90625 -30.46875 10.15625 -29.140625 9.28125 -26.484375 C 8.414062 -23.835938 7.984375 -20.535156 7.984375 -16.578125 C 7.984375 -12.421875 8.398438 -9.015625 9.234375 -6.359375 C 10.066406 -3.710938 11.832031 -2.390625 14.53125 -2.390625 Z M 14.53125 -2.390625 "/></g></g></g><g fill="rgb(16.079712%, 15.689087%, 15.289307%)" fill-opacity="1"><g transform="translate(286.437716, 298.620296)"><g><path d="M 6.046875 -5.296875 C 7.140625 -5.296875 8.019531 -5.03125 8.6875 -4.5 C 9.351562 -3.96875 9.6875 -3.203125 9.6875 -2.203125 C 9.6875 -1.171875 9.328125 -0.378906 8.609375 0.171875 C 7.898438 0.722656 6.992188 1 5.890625 1 C 4.796875 1 3.914062 0.734375 3.25 0.203125 C 2.582031 -0.328125 2.25 -1.09375 2.25 -2.09375 C 2.25 -3.125 2.601562 -3.914062 3.3125 -4.46875 C 4.03125 -5.019531 4.941406 -5.296875 6.046875 -5.296875 Z M 6.046875 -5.296875 "/></g></g></g></svg>